if (_typeface_js && _typeface_js.loadFace) _typeface_js.loadFace({"glyphs":{"S":{"x_min":68,"x_max":765,"ha":833,"o":"m 127 889 l 187 949 l 646 949 l 705 889 l 646 829 l 187 829 l 127 889 l 127 889 m 127 475 l 187 534 l 646 534 l 705 475 l 646 415 l 187 415 l 127 475 l 127 475 m 127 59 l 187 119 l 646 119 l 705 59 l 646 0 l 187 0 l 127 59 l 127 59 m 705 474 l 765 414 l 765 119 l 705 59 l 646 119 l 646 414 l 705 474 l 705 474 m 127 889 l 68 828 l 68 533 l 127 474 l 187 533 l 187 828 l 127 889 l 127 889 "},"¦":{"x_min":256,"x_max":374,"ha":631,"o":"m 374 514 l 256 514 l 256 1055 l 374 1055 l 374 514 m 374 -266 l 256 -266 l 256 275 l 374 275 l 374 -266 "},"/":{"x_min":67.828125,"x_max":692.46875,"ha":760,"o":"m 91 -41 l 67 38 l 299 452 l 380 475 l 403 393 l 172 -19 l 91 -41 m 380 473 l 356 553 l 588 966 l 669 990 l 692 908 l 460 494 l 380 473 "},"y":{"x_min":67.6875,"x_max":601,"ha":669,"o":"m 84 652 l 167 633 l 478 157 l 460 74 l 377 92 l 67 568 l 84 652 m 481 594 l 541 652 l 601 594 l 601 119 l 541 59 l 478 119 l 481 594 l 481 594 m 541 -295 l 481 -239 l 481 0 l 541 59 l 601 0 l 601 -239 l 541 -295 "},"Ž":{"x_min":67.828125,"x_max":765.71875,"ha":834,"o":"m 205 1442 l 412 1235 l 413 1153 l 330 1154 l 124 1360 l 123 1443 l 205 1442 m 414 1236 l 620 1443 l 703 1443 l 701 1361 l 495 1154 l 413 1154 l 414 1236 m 418 474 l 412 569 l 665 923 l 756 948 l 763 854 l 509 499 l 418 474 m 76 0 l 70 94 l 324 449 l 415 474 l 421 380 l 167 25 l 76 0 m 765 59 l 706 0 l 264 0 l 212 59 l 260 119 l 706 119 l 765 59 m 621 889 l 561 829 l 120 829 l 67 889 l 115 949 l 561 949 l 621 889 "},"Á":{"x_min":68,"x_max":765,"ha":833,"o":"m 127 475 l 187 534 l 646 534 l 705 475 l 646 415 l 187 415 l 127 475 l 127 475 m 127 890 l 187 949 l 646 949 l 705 890 l 646 829 l 187 829 l 127 890 l 127 890 m 705 889 l 765 828 l 765 533 l 705 474 l 646 533 l 646 828 l 705 889 l 705 889 m 127 474 l 68 533 l 68 828 l 127 889 l 187 828 l 187 533 l 127 474 l 127 474 m 68 414 l 68 59 l 127 0 l 187 59 l 187 414 l 127 474 l 68 414 l 68 414 m 705 0 l 765 59 l 765 414 l 705 474 l 646 414 l 646 59 l 705 0 l 705 0 m 604 1321 l 421 1055 l 421 1268 l 503 1387 l 604 1321 "},"g":{"x_min":68,"x_max":596,"ha":664,"o":"m 127 594 l 187 654 l 477 654 l 536 594 l 477 534 l 187 534 l 127 594 l 127 594 m 536 59 l 596 119 l 596 533 l 536 594 l 477 533 l 477 119 l 536 59 l 536 59 m 127 59 l 187 119 l 187 533 l 127 594 l 68 533 l 68 119 l 127 59 l 127 59 m 187 0 l 477 0 l 536 59 l 477 119 l 187 119 l 127 59 l 187 0 l 187 0 m 68 -234 l 127 -175 l 477 -175 l 536 -234 l 477 -290 l 127 -290 l 68 -234 l 68 -234 m 596 0 l 596 -174 l 536 -234 l 477 -174 l 477 0 l 536 59 l 596 0 l 596 0 "},"²":{"x_min":140,"x_max":655,"ha":753,"o":"m 655 384 l 140 384 l 140 489 q 264 569 207 531 q 355 634 320 606 q 468 739 443 704 q 494 831 494 774 q 457 904 494 878 q 360 930 421 930 q 242 909 300 930 q 151 868 184 888 l 143 868 l 143 989 q 250 1019 191 1007 q 368 1031 309 1031 q 553 977 490 1031 q 617 839 617 924 q 584 720 617 772 q 473 608 551 669 q 383 544 436 579 q 286 482 331 509 l 655 482 l 655 384 "},"–":{"x_min":67.828125,"x_max":797.59375,"ha":865,"o":"m 67 475 l 127 534 l 737 534 l 797 475 l 737 415 l 127 415 l 67 475 "},"ë":{"x_min":68,"x_max":596,"ha":664,"o":"m 536 594 l 477 534 l 187 534 l 127 594 l 187 654 l 477 654 l 536 594 m 536 326 l 477 267 l 187 267 l 127 326 l 187 386 l 477 386 l 536 326 m 536 59 l 477 0 l 187 0 l 127 59 l 187 119 l 477 119 l 536 59 m 187 267 l 187 119 l 127 59 l 68 119 l 68 267 l 127 326 l 187 267 l 187 267 m 596 535 l 596 387 l 536 327 l 477 387 l 477 535 l 536 594 l 596 535 l 596 535 m 187 535 l 187 387 l 127 327 l 68 387 l 68 535 l 127 594 l 187 535 l 187 535 m 543 884 l 409 884 l 409 1016 l 543 1016 l 543 884 m 263 884 l 129 884 l 129 1016 l 263 1016 l 263 884 "},"ƒ":{"x_min":68.078125,"x_max":765.71875,"ha":834,"o":"m 416 889 l 476 949 l 706 949 l 765 889 l 706 829 l 476 829 l 416 889 l 416 889 m 68 59 l 127 119 l 357 119 l 416 59 l 357 0 l 127 0 l 68 59 l 68 59 m 357 828 l 357 533 l 416 474 l 477 533 l 477 828 l 416 889 l 357 828 l 357 828 m 357 414 l 357 119 l 416 60 l 477 119 l 477 414 l 416 474 l 357 414 l 357 414 m 646 474 l 591 533 l 476 533 l 416 474 l 476 414 l 598 414 l 646 474 l 646 474 m 242 533 l 187 474 l 242 414 l 356 414 l 416 474 l 356 533 l 242 533 l 242 533 "},"Î":{"x_min":67.828125,"x_max":646.34375,"ha":714,"o":"m 356 889 l 417 829 l 417 533 l 356 474 l 297 533 l 297 829 l 356 889 m 356 474 l 417 415 l 417 120 l 356 60 l 297 120 l 297 415 l 356 474 m 646 889 l 586 829 l 417 829 l 356 889 l 417 949 l 586 949 l 646 889 m 646 59 l 586 0 l 417 0 l 356 59 l 417 119 l 586 119 l 646 59 m 356 889 l 297 829 l 127 829 l 67 889 l 127 949 l 297 949 l 356 889 m 356 59 l 297 0 l 127 0 l 67 59 l 127 119 l 297 119 l 356 59 m 506 1137 l 354 1340 l 354 1421 l 414 1420 l 565 1217 l 566 1136 l 506 1137 m 353 1340 l 202 1137 l 141 1136 l 142 1217 l 293 1420 l 354 1422 l 353 1340 "},"e":{"x_min":68,"x_max":596,"ha":664,"o":"m 536 594 l 477 534 l 187 534 l 127 594 l 187 654 l 477 654 l 536 594 m 536 326 l 477 267 l 187 267 l 127 326 l 187 386 l 477 386 l 536 326 m 536 59 l 477 0 l 187 0 l 127 59 l 187 119 l 477 119 l 536 59 m 187 267 l 187 119 l 127 59 l 68 119 l 68 267 l 127 326 l 187 267 l 187 267 m 596 535 l 596 387 l 536 327 l 477 387 l 477 535 l 536 594 l 596 535 l 596 535 m 187 535 l 187 387 l 127 327 l 68 387 l 68 535 l 127 594 l 187 535 l 187 535 "},"Ã":{"x_min":68,"x_max":765,"ha":833,"o":"m 127 475 l 187 534 l 646 534 l 705 475 l 646 415 l 187 415 l 127 475 l 127 475 m 127 890 l 187 949 l 646 949 l 705 890 l 646 829 l 187 829 l 127 890 l 127 890 m 705 889 l 765 828 l 765 533 l 705 474 l 646 533 l 646 828 l 705 889 l 705 889 m 127 474 l 68 533 l 68 828 l 127 889 l 187 828 l 187 533 l 127 474 l 127 474 m 68 414 l 68 59 l 127 0 l 187 59 l 187 414 l 127 474 l 68 414 l 68 414 m 705 0 l 765 59 l 765 414 l 705 474 l 646 414 l 646 59 l 705 0 l 705 0 m 314 1334 l 399 1334 l 519 1213 l 519 1129 l 435 1129 l 314 1249 l 314 1334 m 519 1130 l 519 1214 l 639 1334 l 723 1335 l 723 1249 l 603 1130 l 519 1130 m 110 1129 l 110 1213 l 230 1334 l 314 1334 l 314 1249 l 194 1129 l 110 1129 "},"J":{"x_min":68,"x_max":765,"ha":833,"o":"m 127 59 l 187 119 l 646 119 l 705 59 l 646 0 l 187 0 l 127 59 l 127 59 m 646 889 l 705 949 l 765 889 l 765 533 l 705 474 l 646 534 l 646 889 l 646 889 m 705 474 l 646 414 l 646 119 l 705 59 l 765 119 l 765 414 l 705 474 l 705 474 m 127 474 l 68 414 l 68 119 l 127 59 l 187 119 l 187 414 l 127 474 l 127 474 "},"»":{"x_min":67.828125,"x_max":673.46875,"ha":741,"o":"m 371 737 l 457 735 l 672 546 l 673 471 l 587 471 l 373 661 l 371 737 m 673 470 l 672 395 l 457 205 l 371 205 l 373 280 l 587 470 l 673 470 m 67 737 l 153 735 l 368 546 l 369 471 l 283 471 l 69 661 l 67 737 m 369 471 l 368 395 l 153 206 l 67 205 l 69 280 l 283 470 l 369 471 "},"©":{"x_min":68,"x_max":766,"ha":834,"o":"m 590 683 l 531 742 l 361 742 l 301 683 l 361 623 l 531 623 l 590 683 l 590 683 m 591 268 l 531 328 l 361 328 l 301 268 l 361 208 l 531 208 l 591 268 l 591 268 m 301 267 l 361 327 l 361 622 l 301 682 l 242 615 l 242 327 l 301 267 l 301 267 m 127 889 l 187 949 l 647 949 l 706 889 l 647 829 l 187 829 l 127 889 l 127 889 m 127 59 l 187 119 l 646 119 l 706 59 l 646 0 l 187 0 l 127 59 l 127 59 m 127 59 l 187 119 l 187 828 l 127 889 l 68 828 l 68 119 l 127 59 l 127 59 m 706 59 l 766 119 l 766 828 l 706 889 l 647 828 l 647 119 l 706 59 l 706 59 "},"ò":{"x_min":68,"x_max":596,"ha":664,"o":"m 127 594 l 187 654 l 477 654 l 536 594 l 477 534 l 187 534 l 127 594 l 127 594 m 536 59 l 596 119 l 596 533 l 536 594 l 477 533 l 477 119 l 536 59 l 536 59 m 127 59 l 187 119 l 187 533 l 127 593 l 68 533 l 68 119 l 127 59 l 127 59 m 187 0 l 477 0 l 536 59 l 477 119 l 187 119 l 127 59 l 187 0 l 187 0 m 248 1037 l 347 1103 l 428 983 l 428 768 l 248 1037 l 248 1037 "},"^":{"x_min":67.828125,"x_max":647.703125,"ha":716,"o":"m 647 659 l 565 660 l 358 866 l 358 949 l 440 947 l 647 741 l 647 659 m 358 949 l 356 866 l 150 660 l 67 658 l 69 741 l 275 947 l 358 949 "},"«":{"x_min":67.828125,"x_max":650.421875,"ha":718,"o":"m 356 682 l 150 476 l 67 474 l 69 557 l 275 763 l 358 765 l 356 682 m 150 473 l 356 267 l 358 185 l 275 185 l 69 392 l 67 474 l 150 473 m 649 682 l 442 476 l 360 475 l 361 557 l 567 764 l 650 765 l 649 682 m 442 473 l 649 267 l 650 185 l 567 185 l 361 392 l 360 474 l 442 473 "},"D":{"x_min":68,"x_max":765,"ha":833,"o":"m 127 59 l 187 119 l 646 119 l 705 59 l 646 0 l 187 0 l 127 59 l 127 59 m 705 474 l 765 414 l 765 119 l 705 59 l 646 119 l 646 414 l 705 474 l 705 474 m 127 889 l 187 829 l 187 533 l 127 474 l 68 533 l 68 829 l 127 889 m 415 886 l 505 862 l 714 568 l 707 474 l 617 499 l 408 792 l 415 886 m 127 59 l 68 119 l 68 414 l 127 474 l 187 414 l 187 119 l 127 59 l 127 59 m 187 949 l 356 949 l 416 889 l 356 829 l 187 829 l 127 889 l 187 949 "},"ÿ":{"x_min":67.6875,"x_max":601,"ha":669,"o":"m 84 652 l 167 633 l 478 157 l 460 74 l 377 92 l 67 568 l 84 652 m 481 594 l 541 652 l 601 594 l 601 119 l 541 59 l 478 119 l 481 594 l 481 594 m 541 -295 l 481 -239 l 481 0 l 541 59 l 601 0 l 601 -239 l 541 -295 m 563 884 l 429 884 l 429 1016 l 563 1016 l 563 884 m 283 884 l 149 884 l 149 1016 l 283 1016 l 283 884 "},"í":{"x_min":68,"x_max":250.4375,"ha":318,"o":"m 201 0 l 73 0 l 73 757 l 201 757 l 201 0 m 250 1122 l 68 855 l 68 1069 l 150 1188 l 250 1122 "},"ˆ":{"x_min":67.828125,"x_max":647.703125,"ha":716,"o":"m 565 880 l 358 1086 l 358 1169 l 440 1167 l 647 961 l 647 879 l 565 880 m 356 1086 l 150 880 l 67 878 l 69 961 l 275 1168 l 358 1169 l 356 1086 "},"w":{"x_min":68,"x_max":1004,"ha":1072,"o":"m 1004 119 l 944 59 l 885 119 l 885 594 l 944 654 l 1004 594 l 1004 119 m 596 119 l 536 59 l 477 119 l 477 594 l 536 654 l 596 594 l 596 119 m 187 119 l 127 59 l 68 119 l 68 594 l 127 654 l 187 594 l 187 119 m 944 59 l 885 0 l 596 0 l 536 59 l 596 119 l 885 119 l 944 59 l 944 59 m 536 59 l 476 0 l 187 0 l 127 59 l 187 119 l 476 119 l 536 59 l 536 59 "},"$":{"x_min":68,"x_max":766,"ha":834,"o":"m 127 889 l 187 949 l 647 949 l 706 889 l 647 829 l 187 829 l 127 889 l 127 889 m 127 475 l 187 534 l 646 534 l 706 475 l 646 415 l 187 415 l 127 475 l 127 475 m 127 59 l 187 119 l 646 119 l 706 59 l 646 0 l 187 0 l 127 59 l 127 59 m 706 474 l 766 414 l 766 119 l 706 59 l 647 119 l 646 414 l 706 474 l 706 474 m 127 889 l 68 828 l 68 533 l 127 474 l 187 533 l 187 828 l 127 889 l 127 889 m 357 1012 l 416 1076 l 477 1012 l 477 -58 l 416 -117 l 357 -58 l 357 1012 l 357 1012 "},"\\":{"x_min":67.828125,"x_max":569.03125,"ha":637,"o":"m 534 -76 l 457 -44 l 284 397 l 318 474 l 395 440 l 569 0 l 534 -76 m 318 473 l 241 505 l 67 946 l 101 1024 l 179 990 l 352 549 l 318 473 "},"Ì":{"x_min":67.828125,"x_max":646.34375,"ha":714,"o":"m 356 889 l 417 829 l 417 533 l 356 474 l 297 533 l 297 829 l 356 889 m 356 474 l 417 415 l 417 120 l 356 60 l 297 120 l 297 415 l 356 474 m 646 889 l 586 829 l 417 829 l 356 889 l 417 949 l 586 949 l 646 889 m 646 59 l 586 0 l 417 0 l 356 59 l 417 119 l 586 119 l 646 59 m 356 889 l 297 829 l 127 829 l 67 889 l 127 949 l 297 949 l 356 889 m 356 59 l 297 0 l 127 0 l 67 59 l 127 119 l 297 119 l 356 59 m 172 1290 l 271 1356 l 352 1236 l 352 1021 l 172 1290 l 172 1290 "},"µ":{"x_min":68,"x_max":596,"ha":664,"o":"m 187 0 l 477 0 l 536 59 l 477 119 l 187 119 l 127 59 l 187 0 l 187 0 m 127 654 l 187 594 l 187 119 l 127 59 l 68 119 l 68 594 l 127 654 l 127 654 m 536 654 l 596 594 l 596 119 l 536 59 l 477 119 l 477 594 l 536 654 l 536 654 m 127 -295 l 187 -235 l 180 6 l 127 59 l 68 0 l 68 -235 l 127 -295 l 127 -295 "},"Ç":{"x_min":68,"x_max":706.03125,"ha":774,"o":"m 127 889 l 187 949 l 646 949 l 705 889 l 646 829 l 187 829 l 127 889 m 127 59 l 187 119 l 646 119 l 706 59 l 646 0 l 187 0 l 127 59 m 127 889 l 68 828 l 68 533 l 127 474 l 187 533 l 187 828 l 127 889 m 127 59 l 68 119 l 68 414 l 127 474 l 187 414 l 187 119 l 127 59 m 128 -252 l 229 -274 l 472 -111 l 491 -23 l 392 -1 l 151 -152 l 128 -252 "},"’":{"x_min":67.828125,"x_max":250.265625,"ha":318,"o":"m 250 1034 l 67 768 l 67 981 l 149 1100 l 250 1034 "},"-":{"x_min":67.828125,"x_max":646.34375,"ha":714,"o":"m 67 475 l 127 534 l 586 534 l 646 475 l 586 415 l 127 415 l 67 475 l 67 475 "},"Q":{"x_min":68,"x_max":766,"ha":834,"o":"m 127 889 l 187 949 l 647 949 l 706 889 l 647 829 l 187 829 l 127 889 l 127 889 m 706 474 l 766 414 l 766 119 l 706 59 l 647 119 l 647 414 l 706 474 l 706 474 m 352 294 l 437 293 l 647 84 l 647 0 l 561 0 l 353 209 l 352 294 l 352 294 m 127 889 l 68 828 l 68 533 l 127 474 l 187 533 l 187 828 l 127 889 l 127 889 m 706 889 l 647 828 l 647 533 l 706 474 l 766 533 l 766 828 l 706 889 l 706 889 m 127 59 l 68 119 l 68 414 l 127 474 l 187 414 l 187 119 l 127 59 l 127 59 m 416 59 l 356 119 l 187 119 l 127 59 l 187 0 l 356 0 l 416 59 l 416 59 "},"M":{"x_min":68,"x_max":766,"ha":834,"o":"m 706 890 l 766 829 l 766 533 l 706 474 l 647 533 l 647 829 l 706 890 l 706 890 m 416 889 l 477 828 l 477 533 l 416 474 l 357 533 l 357 828 l 416 889 l 416 889 m 127 474 l 68 533 l 68 828 l 127 889 l 187 828 l 187 533 l 127 474 l 127 474 m 68 414 l 127 474 l 187 414 l 187 59 l 127 0 l 68 59 l 68 414 m 706 0 l 647 59 l 647 414 l 706 474 l 766 414 l 766 59 l 706 0 m 187 949 l 357 949 l 416 890 l 357 829 l 187 829 l 127 890 l 187 949 m 477 949 l 647 949 l 706 890 l 647 829 l 477 829 l 416 890 l 477 949 "},"C":{"x_min":68,"x_max":706.03125,"ha":774,"o":"m 127 889 l 187 949 l 646 949 l 705 889 l 646 829 l 187 829 l 127 889 l 127 889 m 127 59 l 187 119 l 646 119 l 706 59 l 646 0 l 187 0 l 127 59 l 127 59 m 127 889 l 68 828 l 68 533 l 127 474 l 187 533 l 187 828 l 127 889 l 127 889 m 127 59 l 68 119 l 68 414 l 127 474 l 187 414 l 187 119 l 127 59 l 127 59 "},"œ":{"x_min":68,"x_max":1004,"ha":1072,"o":"m 944 594 l 884 535 l 596 535 l 536 594 l 596 654 l 884 654 l 944 594 m 536 594 l 477 535 l 187 535 l 127 594 l 187 654 l 477 654 l 536 594 m 536 60 l 476 1 l 187 1 l 127 60 l 187 121 l 476 121 l 536 60 m 944 327 l 885 268 l 596 268 l 536 327 l 596 387 l 885 387 l 944 327 m 944 60 l 885 1 l 596 1 l 536 60 l 596 121 l 885 121 l 944 60 m 596 267 l 596 120 l 536 60 l 477 120 l 477 267 l 536 327 l 596 267 l 596 267 m 1004 535 l 1004 388 l 944 328 l 885 388 l 885 535 l 944 595 l 1004 535 l 1004 535 m 596 535 l 596 387 l 536 328 l 477 387 l 477 535 l 536 595 l 596 535 l 596 535 m 68 119 l 68 533 l 127 594 l 187 535 l 187 120 l 127 60 l 68 119 "},"!":{"x_min":136,"x_max":256,"ha":391,"o":"m 195 949 l 256 889 l 256 414 l 195 230 l 136 414 l 136 889 l 195 949 m 136 119 l 256 119 l 256 0 l 136 0 l 136 119 l 136 119 "},"ç":{"x_min":68,"x_max":536.46875,"ha":604,"o":"m 127 594 l 187 654 l 476 654 l 536 594 l 476 534 l 187 534 l 127 594 m 127 59 l 187 119 l 187 533 l 127 593 l 68 533 l 68 119 l 127 59 m 187 0 l 476 0 l 536 59 l 476 119 l 187 119 l 127 59 l 187 0 m 105 -243 l 205 -265 l 448 -102 l 467 -14 l 368 8 l 127 -143 l 105 -243 "},"È":{"x_min":68,"x_max":706.03125,"ha":774,"o":"m 127 59 l 187 119 l 646 119 l 706 59 l 646 0 l 187 0 l 127 59 l 127 59 m 127 889 l 187 949 l 646 949 l 705 889 l 646 829 l 187 829 l 127 889 l 127 889 m 127 474 l 187 534 l 646 534 l 706 474 l 646 415 l 187 415 l 127 474 l 127 474 m 127 889 l 68 828 l 68 533 l 127 474 l 187 533 l 187 828 l 127 889 l 127 889 m 127 59 l 68 119 l 68 414 l 127 474 l 187 414 l 187 119 l 127 59 l 127 59 m 241 1290 l 340 1356 l 421 1236 l 421 1021 l 241 1290 l 241 1290 "},"{":{"x_min":67.828125,"x_max":681.609375,"ha":682,"o":"m 389 1000 l 303 971 l 67 562 l 85 474 l 170 503 l 406 911 l 389 1000 l 389 1000 m 85 476 l 67 387 l 303 -21 l 389 -50 l 406 38 l 170 446 l 85 476 l 85 476 m 392 1008 l 452 1068 l 621 1068 l 681 1007 l 621 949 l 452 949 l 392 1008 l 392 1008 m 392 -59 l 452 0 l 621 0 l 681 -59 l 621 -119 l 452 -119 l 392 -59 l 392 -59 "},"X":{"x_min":67.828125,"x_max":682.296875,"ha":750,"o":"m 84 947 l 170 917 l 379 561 l 363 470 l 276 500 l 67 856 l 84 947 m 389 469 l 371 560 l 575 918 l 662 950 l 679 859 l 475 501 l 389 469 m 666 3 l 579 32 l 370 389 l 386 479 l 473 449 l 682 93 l 666 3 m 360 480 l 378 390 l 174 31 l 88 1 l 70 90 l 274 449 l 360 480 "},"ô":{"x_min":68.1875,"x_max":601,"ha":669,"o":"m 132 594 l 192 654 l 482 654 l 541 594 l 482 534 l 192 534 l 132 594 l 132 594 m 541 59 l 601 119 l 601 533 l 541 594 l 482 533 l 482 119 l 541 59 l 541 59 m 132 59 l 192 119 l 192 533 l 132 593 l 73 533 l 73 119 l 132 59 l 132 59 m 192 0 l 482 0 l 541 59 l 482 119 l 192 119 l 132 59 l 192 0 l 192 0 m 502 881 l 322 1087 l 321 1170 l 393 1169 l 573 962 l 574 880 l 502 881 m 320 1088 l 140 881 l 68 879 l 69 962 l 249 1169 l 321 1171 l 320 1088 "},"¼":{"x_min":116.25,"x_max":1259.546875,"ha":1389,"o":"m 370 383 l 258 383 l 258 845 l 116 845 l 116 924 q 228 939 185 924 q 277 1013 270 954 l 370 1013 l 370 383 m 956 1010 l 427 0 l 315 0 l 844 1010 l 956 1010 m 1259 149 l 1149 149 l 1149 0 l 1047 0 l 1047 149 l 731 149 l 731 274 l 1048 639 l 1149 639 l 1149 239 l 1259 239 l 1259 149 m 1050 239 l 1050 510 l 810 239 l 1050 239 "},"#":{"x_min":67.828125,"x_max":967.140625,"ha":1035,"o":"m 464 881 l 510 810 l 451 521 l 380 474 l 333 544 l 344 599 l 466 602 l 493 718 l 369 718 l 394 834 l 464 881 m 295 69 l 249 139 l 309 428 l 380 475 l 426 404 l 366 115 l 295 69 l 295 69 m 967 657 l 907 598 l 612 598 l 553 658 l 612 718 l 907 717 l 967 657 m 138 659 l 198 719 l 493 717 l 553 657 l 493 598 l 198 599 l 138 659 l 138 659 m 897 300 l 837 241 l 542 242 l 482 301 l 542 361 l 837 360 l 897 300 m 67 301 l 127 361 l 422 361 l 482 301 l 422 242 l 127 242 l 67 301 l 67 301 m 754 881 l 800 810 l 740 521 l 670 475 l 623 545 l 683 834 l 754 881 m 585 69 l 539 139 l 599 428 l 670 475 l 716 404 l 707 360 l 585 361 l 560 241 l 682 241 l 656 115 l 585 69 l 585 69 "},"Ê":{"x_min":68,"x_max":706.03125,"ha":774,"o":"m 127 59 l 187 119 l 646 119 l 706 59 l 646 0 l 187 0 l 127 59 l 127 59 m 127 889 l 187 949 l 646 949 l 705 889 l 646 829 l 187 829 l 127 889 l 127 889 m 127 474 l 187 534 l 646 534 l 706 474 l 646 415 l 187 415 l 127 474 l 127 474 m 127 889 l 68 828 l 68 533 l 127 474 l 187 533 l 187 828 l 127 889 l 127 889 m 127 59 l 68 119 l 68 414 l 127 474 l 187 414 l 187 119 l 127 59 l 127 59 m 591 1133 l 384 1339 l 384 1422 l 466 1420 l 673 1214 l 673 1132 l 591 1133 m 382 1339 l 176 1133 l 93 1131 l 95 1214 l 301 1421 l 384 1422 l 382 1339 "},")":{"x_min":67.828125,"x_max":332,"ha":400,"o":"m 272 474 l 332 405 l 332 68 l 272 0 l 213 68 l 213 405 l 272 474 l 272 474 m 272 948 l 332 879 l 332 542 l 272 474 l 213 542 l 213 879 l 272 948 l 272 948 m 67 -204 l 67 -119 l 187 0 l 272 0 l 272 -84 l 152 -204 l 67 -204 l 67 -204 m 67 1153 l 152 1153 l 272 1032 l 272 948 l 187 948 l 67 1068 l 67 1153 l 67 1153 "},"Å":{"x_min":68,"x_max":766,"ha":834,"o":"m 127 475 l 187 534 l 647 534 l 706 475 l 647 415 l 187 415 l 127 475 m 127 890 l 187 949 l 646 949 l 706 890 l 646 829 l 187 829 l 127 890 m 706 889 l 766 828 l 766 533 l 706 474 l 647 533 l 647 828 l 706 889 m 127 474 l 68 533 l 68 828 l 127 889 l 187 828 l 187 533 l 127 474 m 68 414 l 68 59 l 127 0 l 187 59 l 187 414 l 127 474 l 68 414 m 706 0 l 766 59 l 766 414 l 706 474 l 647 414 l 647 59 l 706 0 m 251 1297 l 297 1344 l 520 1344 l 566 1297 l 520 1251 l 297 1251 l 251 1297 m 566 993 l 612 1039 l 612 1251 l 566 1298 l 520 1251 l 521 1039 l 566 993 m 251 993 l 298 1039 l 297 1251 l 251 1298 l 205 1251 l 205 1039 l 251 993 m 297 948 l 520 948 l 566 993 l 520 1039 l 297 1039 l 251 993 l 297 948 "},"ø":{"x_min":68,"x_max":596,"ha":664,"o":"m 127 594 l 187 654 l 477 654 l 536 594 l 477 534 l 187 534 l 127 594 l 127 594 m 127 59 l 187 119 l 187 533 l 127 593 l 68 533 l 68 119 l 127 59 l 127 59 m 536 59 l 596 119 l 596 533 l 536 594 l 477 533 l 477 119 l 536 59 l 536 59 m 213 149 l 290 156 l 473 430 l 449 503 l 373 497 l 190 222 l 213 149 l 213 149 m 187 0 l 477 0 l 536 59 l 477 119 l 187 119 l 127 59 l 187 0 l 187 0 "},"â":{"x_min":68,"x_max":596,"ha":664,"o":"m 536 594 l 477 534 l 187 534 l 127 594 l 187 654 l 477 654 l 536 594 m 536 326 l 477 267 l 187 267 l 127 326 l 187 386 l 477 386 l 536 326 m 536 59 l 477 0 l 187 0 l 127 59 l 187 119 l 477 119 l 536 59 m 596 267 l 596 119 l 536 59 l 477 119 l 477 267 l 536 326 l 596 267 l 596 267 m 187 267 l 187 119 l 127 59 l 68 119 l 68 267 l 127 326 l 187 267 l 187 267 m 596 535 l 596 387 l 536 327 l 477 387 l 477 535 l 536 594 l 596 535 l 596 535 m 498 881 l 347 1092 l 347 1177 l 407 1176 l 558 964 l 558 879 l 498 881 m 346 1092 l 195 880 l 135 879 l 136 964 l 286 1176 l 347 1178 l 346 1092 "},"}":{"x_min":0,"x_max":613.796875,"ha":682,"o":"m 292 -52 l 377 -23 l 613 385 l 596 474 l 510 445 l 274 36 l 292 -52 l 292 -52 m 596 472 l 613 561 l 377 969 l 292 999 l 274 910 l 510 501 l 596 472 l 596 472 m 288 -59 l 229 -119 l 59 -119 l 0 -59 l 59 0 l 229 0 l 288 -59 l 288 -59 m 288 1008 l 229 949 l 59 949 l 0 1008 l 59 1068 l 229 1068 l 288 1008 l 288 1008 "},"‰":{"x_min":68,"x_max":1230,"ha":1298,"o":"m 706 474 l 765 415 l 765 119 l 706 60 l 646 119 l 646 415 l 706 474 m 881 949 l 879 866 l 673 660 l 590 658 l 592 741 l 798 947 l 881 949 m 358 289 l 356 207 l 150 1 l 68 0 l 69 82 l 275 288 l 358 289 m 416 58 l 357 119 l 357 414 l 416 474 l 477 414 l 477 119 l 416 58 m 646 0 l 476 0 l 416 59 l 476 119 l 646 119 l 706 59 l 646 0 m 416 889 l 477 829 l 477 533 l 416 474 l 357 533 l 357 829 l 416 889 m 127 890 l 187 949 l 356 949 l 416 889 l 356 829 l 187 829 l 127 890 l 127 890 m 127 474 l 68 533 l 68 828 l 127 889 l 187 828 l 187 533 l 127 474 m 356 415 l 187 415 l 127 474 l 187 534 l 356 534 l 416 474 l 356 415 m 646 415 l 476 415 l 416 474 l 476 534 l 646 534 l 706 474 l 646 415 m 1169 474 l 1230 414 l 1230 119 l 1169 59 l 1110 119 l 1110 414 l 1169 474 m 881 59 l 822 119 l 822 414 l 881 474 l 941 414 l 941 119 l 881 59 m 1110 0 l 940 0 l 881 59 l 940 119 l 1110 119 l 1169 59 l 1110 0 m 1110 415 l 940 415 l 881 474 l 940 534 l 1110 534 l 1169 474 l 1110 415 "},"Ä":{"x_min":68,"x_max":765,"ha":833,"o":"m 127 475 l 187 534 l 646 534 l 705 475 l 646 415 l 187 415 l 127 475 l 127 475 m 127 890 l 187 949 l 646 949 l 705 890 l 646 829 l 187 829 l 127 890 l 127 890 m 705 889 l 765 828 l 765 533 l 705 474 l 646 533 l 646 828 l 705 889 l 705 889 m 127 474 l 68 533 l 68 828 l 127 889 l 187 828 l 187 533 l 127 474 l 127 474 m 68 414 l 68 59 l 127 0 l 187 59 l 187 414 l 127 474 l 68 414 l 68 414 m 705 0 l 765 59 l 765 414 l 705 474 l 646 414 l 646 59 l 705 0 l 705 0 m 627 1137 l 493 1137 l 493 1269 l 627 1269 l 627 1137 m 347 1137 l 213 1137 l 213 1269 l 347 1269 l 347 1137 "},"¸":{"x_min":230.59375,"x_max":593.4375,"ha":883,"o":"m 252 -152 l 493 -1 l 593 -23 l 573 -111 l 330 -274 l 230 -252 l 252 -152 "},"a":{"x_min":68,"x_max":596,"ha":664,"o":"m 536 594 l 477 534 l 187 534 l 127 594 l 187 654 l 477 654 l 536 594 m 536 326 l 477 267 l 187 267 l 127 326 l 187 386 l 477 386 l 536 326 m 536 59 l 477 0 l 187 0 l 127 59 l 187 119 l 477 119 l 536 59 m 596 267 l 596 119 l 536 59 l 477 119 l 477 267 l 536 326 l 596 267 l 596 267 m 187 267 l 187 119 l 127 59 l 68 119 l 68 267 l 127 326 l 187 267 l 187 267 m 596 535 l 596 387 l 536 327 l 477 387 l 477 535 l 536 594 l 596 535 l 596 535 "},"—":{"x_min":67.828125,"x_max":1318.46875,"ha":1386,"o":"m 67 475 l 127 534 l 1258 534 l 1318 475 l 1258 415 l 127 415 l 67 475 "},"=":{"x_min":67.828125,"x_max":646.34375,"ha":714,"o":"m 67 595 l 127 654 l 586 654 l 646 595 l 586 534 l 127 534 l 67 595 l 67 595 m 67 355 l 127 414 l 586 414 l 646 355 l 586 295 l 127 295 l 67 355 l 67 355 "},"N":{"x_min":68,"x_max":765,"ha":833,"o":"m 68 414 l 127 474 l 187 414 l 187 59 l 127 0 l 68 59 l 68 414 m 68 889 l 127 949 l 187 889 l 187 533 l 127 474 l 68 533 l 68 889 m 646 889 l 705 949 l 765 889 l 765 533 l 705 474 l 646 533 l 646 889 m 646 414 l 705 474 l 765 414 l 765 59 l 705 0 l 646 59 l 646 414 m 199 834 l 229 912 l 308 881 l 450 556 l 419 477 l 340 508 l 199 834 m 387 398 l 418 477 l 497 446 l 639 121 l 607 42 l 529 73 l 387 398 "},"ú":{"x_min":68,"x_max":596,"ha":664,"o":"m 187 0 l 477 0 l 536 59 l 477 119 l 187 119 l 127 59 l 187 0 l 187 0 m 127 654 l 187 594 l 187 119 l 127 59 l 68 119 l 68 594 l 127 654 l 127 654 m 536 654 l 596 594 l 596 119 l 536 59 l 477 119 l 477 594 l 536 654 l 536 654 m 496 1068 l 313 802 l 313 1015 l 395 1134 l 496 1068 "},"2":{"x_min":68,"x_max":765,"ha":833,"o":"m 127 889 l 187 949 l 646 949 l 705 889 l 646 829 l 187 829 l 127 889 l 127 889 m 127 475 l 187 534 l 646 534 l 705 475 l 646 415 l 187 415 l 127 475 l 127 475 m 127 59 l 187 119 l 646 119 l 705 59 l 646 0 l 187 0 l 127 59 l 127 59 m 705 889 l 765 828 l 765 533 l 705 474 l 646 533 l 646 828 l 705 889 l 705 889 m 127 59 l 68 119 l 68 414 l 127 474 l 187 414 l 187 119 l 127 59 l 127 59 "},"ü":{"x_min":68,"x_max":596,"ha":664,"o":"m 187 0 l 477 0 l 536 59 l 477 119 l 187 119 l 127 59 l 187 0 l 187 0 m 127 654 l 187 594 l 187 119 l 127 59 l 68 119 l 68 594 l 127 654 l 127 654 m 536 654 l 596 594 l 596 119 l 536 59 l 477 119 l 477 594 l 536 654 l 536 654 m 546 884 l 412 884 l 412 1016 l 546 1016 l 546 884 m 266 884 l 132 884 l 132 1016 l 266 1016 l 266 884 "},"¯":{"x_min":67.828125,"x_max":871.515625,"ha":939,"o":"m 67 1167 l 127 1227 l 811 1227 l 871 1167 l 811 1108 l 127 1108 l 67 1167 "},"Z":{"x_min":67.828125,"x_max":765.71875,"ha":834,"o":"m 418 474 l 412 569 l 665 923 l 756 948 l 763 854 l 509 499 l 418 474 m 76 0 l 70 94 l 324 449 l 415 474 l 421 380 l 167 25 l 76 0 m 765 59 l 706 0 l 264 0 l 212 59 l 260 119 l 706 119 l 765 59 m 621 889 l 561 829 l 120 829 l 67 889 l 115 949 l 561 949 l 621 889 "},"u":{"x_min":68,"x_max":596,"ha":664,"o":"m 187 0 l 477 0 l 536 59 l 477 119 l 187 119 l 127 59 l 187 0 l 187 0 m 127 654 l 187 594 l 187 119 l 127 59 l 68 119 l 68 594 l 127 654 l 127 654 m 536 654 l 596 594 l 596 119 l 536 59 l 477 119 l 477 594 l 536 654 l 536 654 "},"˜":{"x_min":67.828125,"x_max":680.9375,"ha":749,"o":"m 271 1081 l 356 1081 l 476 960 l 476 876 l 392 876 l 271 996 l 271 1081 m 476 877 l 476 961 l 596 1081 l 680 1082 l 680 996 l 560 877 l 476 877 m 67 876 l 67 960 l 187 1081 l 271 1081 l 271 996 l 151 876 l 67 876 "},"Ó":{"x_min":68,"x_max":765,"ha":833,"o":"m 127 889 l 187 949 l 646 949 l 705 889 l 646 829 l 187 829 l 127 889 l 127 889 m 127 59 l 187 119 l 646 119 l 705 59 l 646 0 l 187 0 l 127 59 l 127 59 m 705 474 l 765 414 l 765 119 l 705 59 l 646 119 l 646 414 l 705 474 l 705 474 m 127 889 l 68 828 l 68 533 l 127 474 l 187 533 l 187 828 l 127 889 l 127 889 m 705 889 l 646 828 l 646 533 l 705 474 l 765 533 l 765 828 l 705 889 l 705 889 m 127 59 l 68 119 l 68 414 l 127 474 l 187 414 l 187 119 l 127 59 l 127 59 m 576 1321 l 393 1055 l 393 1268 l 475 1387 l 576 1321 "},"k":{"x_min":68,"x_max":586.765625,"ha":655,"o":"m 127 949 l 187 889 l 187 653 l 127 594 l 68 653 l 68 889 l 127 949 m 455 770 l 454 686 l 286 520 l 202 520 l 203 605 l 370 771 l 455 770 m 68 533 l 127 594 l 187 533 l 187 59 l 127 0 l 68 59 l 68 533 m 190 453 l 201 541 l 288 521 l 586 93 l 575 5 l 488 24 l 190 453 "},"Ù":{"x_min":68,"x_max":765,"ha":833,"o":"m 705 58 l 646 0 l 187 0 l 127 58 l 187 119 l 646 119 l 705 58 l 705 58 m 127 59 l 68 119 l 68 414 l 127 474 l 187 414 l 187 119 l 127 59 l 127 59 m 705 474 l 765 414 l 765 119 l 705 59 l 646 119 l 646 414 l 705 474 l 705 474 m 765 533 l 705 474 l 646 533 l 646 889 l 705 949 l 765 889 l 765 533 m 127 949 l 187 889 l 187 533 l 127 474 l 68 533 l 68 889 l 127 949 m 248 1290 l 347 1356 l 428 1236 l 428 1021 l 248 1290 l 248 1290 "},"Ÿ":{"x_min":67.828125,"x_max":679.578125,"ha":747,"o":"m 84 947 l 170 917 l 379 561 l 363 470 l 276 500 l 67 856 l 84 947 m 389 469 l 371 560 l 575 918 l 662 950 l 679 859 l 475 501 l 389 469 m 373 474 l 434 414 l 434 59 l 373 0 l 314 59 l 314 414 l 373 474 l 373 474 m 581 1137 l 447 1137 l 447 1269 l 581 1269 l 581 1137 m 301 1137 l 167 1137 l 167 1269 l 301 1269 l 301 1137 "},"€":{"x_min":67.828125,"x_max":905.421875,"ha":973,"o":"m 326 59 l 386 119 l 845 119 l 905 59 l 845 0 l 386 0 l 326 59 l 326 59 m 326 889 l 386 949 l 845 949 l 904 889 l 845 829 l 386 829 l 326 889 l 326 889 m 67 621 l 127 681 l 586 681 l 646 621 l 586 562 l 127 562 l 67 621 l 67 621 m 67 326 l 127 386 l 586 386 l 646 326 l 586 267 l 127 267 l 67 326 l 67 326 m 326 888 l 267 828 l 267 533 l 326 474 l 386 533 l 386 562 l 267 562 l 267 681 l 386 681 l 386 828 l 326 888 l 326 888 m 326 59 l 267 119 l 267 414 l 326 474 l 386 414 l 386 119 l 326 59 l 326 59 "},"¢":{"x_min":68,"x_max":595.96875,"ha":664,"o":"m 68 119 l 68 534 l 127 595 l 187 535 l 187 120 l 127 60 l 68 119 m 595 595 l 536 534 l 187 535 l 127 595 l 187 654 l 536 654 l 595 595 m 595 60 l 536 0 l 187 0 l 127 60 l 187 119 l 536 119 l 595 60 m 338 949 l 398 889 l 398 713 l 338 654 l 279 713 l 279 889 l 338 949 m 338 474 l 398 415 l 398 239 l 338 180 l 279 239 l 279 415 l 338 474 m 338 0 l 398 -59 l 398 -235 l 338 -294 l 279 -235 l 279 -59 l 338 0 "},"ß":{"x_min":125,"x_max":789,"ha":861,"o":"m 789 325 q 697 81 789 180 q 457 -17 605 -17 q 388 -11 427 -17 q 325 2 349 -6 l 325 114 l 331 114 q 393 92 360 98 q 465 86 427 86 q 552 105 515 86 q 612 158 589 125 q 646 236 636 193 q 657 331 657 279 q 585 500 657 443 q 380 558 514 558 l 380 660 q 538 700 486 660 q 590 828 590 740 q 582 874 590 852 q 554 918 575 897 q 506 950 536 938 q 436 962 477 962 q 366 952 397 962 q 308 915 335 942 q 268 846 283 891 q 253 737 253 801 l 253 0 l 125 0 l 125 732 q 149 878 125 816 q 217 982 173 940 q 318 1041 257 1021 q 442 1062 379 1062 q 644 1002 566 1062 q 722 841 722 943 q 673 704 722 765 q 549 622 625 644 l 549 616 q 724 515 660 591 q 789 325 789 440 "},"é":{"x_min":68,"x_max":596,"ha":664,"o":"m 536 594 l 477 534 l 187 534 l 127 594 l 187 654 l 477 654 l 536 594 m 536 326 l 477 267 l 187 267 l 127 326 l 187 386 l 477 386 l 536 326 m 536 59 l 477 0 l 187 0 l 127 59 l 187 119 l 477 119 l 536 59 m 187 267 l 187 119 l 127 59 l 68 119 l 68 267 l 127 326 l 187 267 l 187 267 m 596 535 l 596 387 l 536 327 l 477 387 l 477 535 l 536 594 l 596 535 l 596 535 m 187 535 l 187 387 l 127 327 l 68 387 l 68 535 l 127 594 l 187 535 l 187 535 m 519 1068 l 336 802 l 336 1015 l 418 1134 l 519 1068 "},"s":{"x_min":68,"x_max":596,"ha":664,"o":"m 536 594 l 477 534 l 187 534 l 127 594 l 187 654 l 477 654 l 536 594 m 536 326 l 477 267 l 187 267 l 127 326 l 187 386 l 477 386 l 536 326 m 536 59 l 477 0 l 187 0 l 127 59 l 187 119 l 477 119 l 536 59 m 596 267 l 596 119 l 536 59 l 477 119 l 477 267 l 536 326 l 596 267 l 596 267 m 187 535 l 187 387 l 127 327 l 68 387 l 68 535 l 127 594 l 187 535 l 187 535 "},"B":{"x_min":68,"x_max":766,"ha":834,"o":"m 128 475 l 187 534 l 647 534 l 706 475 l 647 415 l 187 415 l 128 475 l 128 475 m 127 59 l 187 119 l 646 119 l 706 59 l 646 0 l 187 0 l 127 59 l 127 59 m 706 474 l 766 414 l 766 119 l 706 59 l 647 119 l 647 414 l 706 474 l 706 474 m 127 889 l 68 829 l 68 533 l 127 474 l 187 533 l 187 829 l 127 889 l 127 889 m 127 59 l 68 119 l 68 414 l 127 474 l 187 414 l 187 119 l 127 59 l 127 59 m 416 889 l 357 829 l 357 534 l 416 534 l 477 534 l 477 829 l 416 889 l 416 889 m 356 949 l 416 889 l 356 829 l 187 829 l 127 889 l 187 949 l 356 949 l 356 949 "},"…":{"x_min":68,"x_max":962,"ha":1030,"o":"m 962 0 l 824 0 l 824 151 l 962 151 l 962 0 m 584 0 l 446 0 l 446 151 l 584 151 l 584 0 m 206 0 l 68 0 l 68 151 l 206 151 l 206 0 "},"?":{"x_min":68,"x_max":765,"ha":833,"o":"m 127 889 l 187 949 l 646 949 l 705 889 l 646 829 l 187 829 l 127 889 l 127 889 m 705 889 l 646 828 l 646 533 l 705 474 l 765 533 l 765 828 l 705 889 l 705 889 m 127 889 l 68 828 l 68 533 l 127 474 l 187 533 l 187 828 l 127 889 l 127 889 m 706 474 l 624 473 l 417 267 l 416 185 l 499 185 l 705 392 l 706 474 l 706 474 m 356 119 l 476 119 l 476 0 l 356 0 l 356 119 l 356 119 "},"H":{"x_min":68,"x_max":765,"ha":833,"o":"m 127 474 l 187 534 l 646 534 l 705 474 l 646 415 l 187 415 l 127 474 l 127 474 m 646 889 l 705 949 l 765 889 l 765 533 l 705 474 l 646 534 l 646 889 l 646 889 m 646 413 l 705 473 l 765 413 l 765 59 l 705 0 l 646 59 l 646 413 l 646 413 m 68 413 l 127 473 l 187 413 l 187 59 l 127 0 l 68 59 l 68 413 l 68 413 m 68 889 l 127 949 l 187 889 l 187 533 l 127 474 l 68 534 l 68 889 l 68 889 "},"î":{"x_min":-0.046875,"x_max":395.359375,"ha":395,"o":"m 395 879 l 292 879 l 195 1061 l 99 879 l 0 879 l 120 1137 l 274 1137 l 395 879 m 262 0 l 134 0 l 134 757 l 262 757 l 262 0 "},"c":{"x_min":68,"x_max":536.46875,"ha":604,"o":"m 127 594 l 187 654 l 476 654 l 536 594 l 476 534 l 187 534 l 127 594 l 127 594 m 127 59 l 187 119 l 187 533 l 127 593 l 68 533 l 68 119 l 127 59 l 127 59 m 187 0 l 476 0 l 536 59 l 476 119 l 187 119 l 127 59 l 187 0 l 187 0 "},"¶":{"x_min":93,"x_max":750,"ha":883,"o":"m 750 -246 l 650 -246 l 650 923 l 504 923 l 504 -246 l 404 -246 l 404 402 q 178 489 264 405 q 93 712 93 573 q 181 931 93 852 q 434 1010 269 1010 l 750 1010 l 750 -246 "},"•":{"x_min":125,"x_max":632,"ha":758,"o":"m 632 449 q 557 270 632 344 q 378 196 482 196 q 199 270 273 196 q 125 449 125 344 q 199 627 125 553 q 378 702 273 702 q 557 627 482 702 q 632 449 632 553 "},"¥":{"x_min":73,"x_max":809,"ha":883,"o":"m 809 1010 l 505 438 l 505 407 l 757 407 l 757 313 l 506 313 l 506 219 l 757 219 l 757 125 l 506 125 l 506 0 l 378 0 l 378 125 l 127 125 l 127 219 l 378 219 l 378 313 l 127 313 l 127 407 l 379 407 l 379 438 l 73 1010 l 216 1010 l 442 563 l 671 1010 l 809 1010 "},"(":{"x_min":68,"x_max":332.328125,"ha":400,"o":"m 127 474 l 68 543 l 68 881 l 127 949 l 187 881 l 187 543 l 127 474 l 127 474 m 127 0 l 68 69 l 68 406 l 127 475 l 187 406 l 187 69 l 127 0 l 127 0 m 332 1154 l 332 1069 l 212 949 l 127 949 l 127 1034 l 247 1154 l 332 1154 l 332 1154 m 332 -203 l 247 -203 l 127 -82 l 127 1 l 212 1 l 332 -118 l 332 -203 l 332 -203 "},"U":{"x_min":68,"x_max":765,"ha":833,"o":"m 705 58 l 646 0 l 187 0 l 127 58 l 187 119 l 646 119 l 705 58 l 705 58 m 127 59 l 68 119 l 68 414 l 127 474 l 187 414 l 187 119 l 127 59 l 127 59 m 705 474 l 765 414 l 765 119 l 705 59 l 646 119 l 646 414 l 705 474 l 705 474 m 765 533 l 705 474 l 646 533 l 646 889 l 705 949 l 765 889 l 765 533 m 127 949 l 187 889 l 187 533 l 127 474 l 68 533 l 68 889 l 127 949 "},"Ñ":{"x_min":68,"x_max":765,"ha":833,"o":"m 68 414 l 127 474 l 187 414 l 187 59 l 127 0 l 68 59 l 68 414 m 68 889 l 127 949 l 187 889 l 187 533 l 127 474 l 68 533 l 68 889 m 646 889 l 705 949 l 765 889 l 765 533 l 705 474 l 646 533 l 646 889 m 646 414 l 705 474 l 765 414 l 765 59 l 705 0 l 646 59 l 646 414 m 199 834 l 229 912 l 308 881 l 450 556 l 419 477 l 340 508 l 199 834 m 387 398 l 418 477 l 497 446 l 639 121 l 607 42 l 529 73 l 387 398 m 313 1334 l 398 1334 l 518 1213 l 518 1129 l 434 1129 l 313 1249 l 313 1334 m 518 1130 l 518 1214 l 638 1334 l 722 1335 l 722 1249 l 602 1130 l 518 1130 m 109 1129 l 109 1213 l 229 1334 l 313 1334 l 313 1249 l 193 1129 l 109 1129 "},"F":{"x_min":68,"x_max":706.03125,"ha":774,"o":"m 127 889 l 187 949 l 646 949 l 705 889 l 646 829 l 187 829 l 127 889 l 127 889 m 127 474 l 187 534 l 646 534 l 706 474 l 646 415 l 187 415 l 127 474 l 127 474 m 127 889 l 68 828 l 68 533 l 127 474 l 187 533 l 187 828 l 127 889 l 127 889 m 68 414 l 127 474 l 187 415 l 187 59 l 127 0 l 68 59 l 68 414 l 68 414 "},"­":{"x_min":67.828125,"x_max":646.34375,"ha":714,"o":"m 67 475 l 127 534 l 586 534 l 646 475 l 586 415 l 127 415 l 67 475 l 67 475 "},":":{"x_min":136,"x_max":280,"ha":416,"o":"m 136 749 l 280 749 l 280 604 l 136 604 l 136 749 m 136 344 l 280 344 l 280 200 l 136 200 l 136 344 "},"Û":{"x_min":68,"x_max":765,"ha":833,"o":"m 705 58 l 646 0 l 187 0 l 127 58 l 187 119 l 646 119 l 705 58 l 705 58 m 127 59 l 68 119 l 68 414 l 127 474 l 187 414 l 187 119 l 127 59 l 127 59 m 705 474 l 765 414 l 765 119 l 705 59 l 646 119 l 646 414 l 705 474 l 705 474 m 765 533 l 705 474 l 646 533 l 646 889 l 705 949 l 765 889 l 765 533 m 127 949 l 187 889 l 187 533 l 127 474 l 68 533 l 68 889 l 127 949 m 629 1133 l 422 1339 l 422 1422 l 504 1420 l 711 1214 l 711 1132 l 629 1133 m 420 1339 l 214 1133 l 131 1131 l 133 1214 l 339 1421 l 422 1422 l 420 1339 "},"*":{"x_min":67.828125,"x_max":646.34375,"ha":714,"o":"m 208 463 l 191 544 l 440 929 l 522 948 l 540 865 l 291 479 l 208 463 l 208 463 m 67 707 l 127 766 l 586 766 l 646 707 l 586 647 l 127 647 l 67 707 l 67 707 m 209 949 l 290 930 l 539 545 l 522 463 l 439 480 l 191 866 l 209 949 l 209 949 "},"†":{"x_min":127,"x_max":757,"ha":883,"o":"m 757 702 l 483 705 l 487 92 l 397 92 l 400 705 l 127 702 l 127 789 l 400 785 l 397 1055 l 487 1055 l 483 785 l 757 789 l 757 702 "},"°":{"x_min":132,"x_max":660.671875,"ha":752,"o":"m 191 934 l 251 994 l 541 994 l 600 934 l 541 874 l 251 874 l 191 934 m 601 538 l 660 598 l 660 874 l 600 934 l 541 874 l 541 598 l 601 538 m 192 538 l 252 598 l 251 874 l 191 934 l 132 874 l 132 598 l 192 538 m 252 479 l 542 479 l 601 538 l 542 598 l 252 598 l 192 538 l 252 479 "},"V":{"x_min":68,"x_max":765,"ha":833,"o":"m 765 533 l 705 474 l 646 533 l 646 889 l 705 949 l 765 889 l 765 533 m 127 949 l 187 889 l 187 533 l 127 474 l 68 533 l 68 889 l 127 949 m 129 477 l 216 447 l 425 91 l 408 1 l 322 30 l 113 386 l 129 477 m 434 -1 l 416 89 l 621 447 l 707 479 l 725 388 l 520 30 l 434 -1 "},"å":{"x_min":68,"x_max":606,"ha":673,"o":"m 135 1307 l 195 1367 l 485 1367 l 544 1307 l 485 1247 l 195 1247 l 135 1307 m 546 910 l 606 970 l 604 1246 l 544 1306 l 485 1246 l 487 970 l 546 910 m 137 910 l 197 970 l 196 1246 l 136 1306 l 77 1246 l 77 970 l 137 910 m 196 851 l 486 851 l 545 910 l 486 970 l 196 970 l 137 910 l 196 851 m 536 593 l 477 654 l 187 654 l 127 594 l 187 534 l 477 533 l 536 593 l 536 593 m 536 326 l 476 386 l 187 386 l 127 326 l 187 267 l 476 267 l 536 326 l 536 326 m 536 59 l 476 119 l 187 119 l 127 59 l 187 0 l 476 0 l 536 59 l 536 59 m 596 267 l 595 119 l 535 59 l 476 119 l 477 267 l 536 326 l 595 267 l 596 267 m 187 267 l 187 119 l 127 59 l 68 119 l 68 267 l 127 326 l 187 267 l 187 267 m 596 535 l 595 387 l 535 327 l 476 387 l 477 535 l 536 594 l 595 535 l 596 535 "}," ":{"x_min":0,"x_max":0,"ha":610},"0":{"x_min":68,"x_max":765,"ha":833,"o":"m 127 889 l 187 949 l 646 949 l 705 889 l 646 829 l 187 829 l 127 889 l 127 889 m 127 59 l 187 119 l 646 119 l 705 59 l 646 0 l 187 0 l 127 59 l 127 59 m 705 474 l 765 414 l 765 119 l 705 59 l 646 119 l 646 414 l 705 474 l 705 474 m 705 889 l 765 828 l 765 533 l 705 474 l 646 533 l 646 828 l 705 889 l 705 889 m 127 889 l 68 828 l 68 533 l 127 474 l 187 533 l 187 828 l 127 889 l 127 889 m 127 59 l 68 119 l 68 414 l 127 474 l 187 414 l 187 119 l 127 59 l 127 59 "},"”":{"x_min":67.828125,"x_max":495.78125,"ha":564,"o":"m 250 1034 l 67 768 l 67 981 l 149 1100 l 250 1034 m 495 1034 l 313 768 l 313 981 l 395 1100 l 495 1034 "},"¾":{"x_min":94.734375,"x_max":1297.546875,"ha":1389,"o":"m 537 560 q 517 473 537 511 q 464 412 496 435 q 386 376 428 387 q 291 366 345 366 q 187 376 235 366 q 94 405 138 386 l 94 523 l 106 523 q 183 480 131 500 q 289 460 235 460 q 383 484 346 460 q 421 558 421 509 q 387 634 421 614 q 291 655 353 655 l 196 655 l 196 749 l 281 749 q 372 774 340 749 q 405 845 405 800 q 377 910 405 886 q 290 935 349 935 q 193 913 245 935 q 116 869 141 892 l 105 869 l 105 987 q 199 1017 148 1006 q 303 1029 250 1029 q 464 981 407 1029 q 522 867 522 934 q 489 770 522 808 q 404 714 456 731 l 404 708 q 497 660 458 697 q 537 560 537 623 m 1017 1010 l 487 0 l 375 0 l 905 1010 l 1017 1010 m 1297 149 l 1187 149 l 1187 0 l 1085 0 l 1085 149 l 769 149 l 769 274 l 1085 639 l 1187 639 l 1187 239 l 1297 239 l 1297 149 m 1088 239 l 1088 510 l 848 239 l 1088 239 "},"@":{"x_min":68,"x_max":844.390625,"ha":912,"o":"m 646 682 l 587 623 l 587 327 l 646 268 l 706 327 l 706 623 l 646 682 l 646 682 m 357 683 l 417 742 l 587 742 l 646 682 l 587 623 l 417 623 l 357 683 l 357 683 m 357 268 l 417 328 l 417 623 l 357 683 l 297 623 l 297 328 l 357 268 l 357 268 m 586 209 l 646 268 l 586 328 l 416 328 l 356 268 l 416 209 l 586 209 l 586 209 m 127 889 l 181 949 l 592 949 l 646 889 l 592 829 l 181 829 l 127 889 l 127 889 m 127 59 l 187 119 l 784 119 l 844 59 l 784 0 l 187 0 l 127 59 l 127 59 m 127 889 l 68 828 l 68 533 l 127 474 l 187 533 l 187 828 l 127 889 l 127 889 m 127 59 l 68 119 l 68 414 l 127 474 l 187 414 l 187 119 l 127 59 l 127 59 m 706 828 l 706 623 l 587 742 l 587 828 l 646 889 l 706 828 l 706 828 "},"ö":{"x_min":68,"x_max":596,"ha":664,"o":"m 127 594 l 187 654 l 477 654 l 536 594 l 477 534 l 187 534 l 127 594 l 127 594 m 536 59 l 596 119 l 596 533 l 536 594 l 477 533 l 477 119 l 536 59 l 536 59 m 127 59 l 187 119 l 187 533 l 127 593 l 68 533 l 68 119 l 127 59 l 127 59 m 187 0 l 477 0 l 536 59 l 477 119 l 187 119 l 127 59 l 187 0 l 187 0 m 541 884 l 407 884 l 407 1016 l 541 1016 l 541 884 m 261 884 l 127 884 l 127 1016 l 261 1016 l 261 884 "},"i":{"x_min":68,"x_max":187,"ha":255,"o":"m 127 653 l 187 594 l 187 59 l 127 0 l 68 59 l 68 594 l 127 653 m 68 949 l 187 949 l 187 829 l 68 829 l 68 949 "},"Õ":{"x_min":68,"x_max":765,"ha":833,"o":"m 127 889 l 187 949 l 646 949 l 705 889 l 646 829 l 187 829 l 127 889 l 127 889 m 127 59 l 187 119 l 646 119 l 705 59 l 646 0 l 187 0 l 127 59 l 127 59 m 705 474 l 765 414 l 765 119 l 705 59 l 646 119 l 646 414 l 705 474 l 705 474 m 127 889 l 68 828 l 68 533 l 127 474 l 187 533 l 187 828 l 127 889 l 127 889 m 705 889 l 646 828 l 646 533 l 705 474 l 765 533 l 765 828 l 705 889 l 705 889 m 127 59 l 68 119 l 68 414 l 127 474 l 187 414 l 187 119 l 127 59 l 127 59 m 312 1334 l 397 1334 l 517 1213 l 517 1129 l 433 1129 l 312 1249 l 312 1334 m 517 1130 l 517 1214 l 637 1334 l 721 1335 l 721 1249 l 601 1130 l 517 1130 m 108 1129 l 108 1213 l 228 1334 l 312 1334 l 312 1249 l 192 1129 l 108 1129 "},"þ":{"x_min":125,"x_max":792,"ha":865,"o":"m 792 388 q 765 219 792 295 q 690 90 739 143 q 585 12 646 39 q 457 -15 524 -15 q 350 -2 398 -15 q 253 37 302 10 l 253 -279 l 125 -279 l 125 1055 l 253 1055 l 253 678 q 367 750 303 721 q 502 779 430 779 q 715 675 639 779 q 792 388 792 572 m 660 385 q 613 590 660 522 q 469 658 566 658 q 359 634 414 658 q 253 571 303 610 l 253 142 q 346 108 307 117 q 434 100 385 100 q 600 171 540 100 q 660 385 660 243 "},"]":{"x_min":33.90625,"x_max":383,"ha":519,"o":"m 323 474 l 383 534 l 383 948 l 323 1009 l 264 949 l 264 534 l 323 474 l 323 474 m 323 1068 l 263 1009 l 94 1009 l 33 1068 l 94 1128 l 263 1128 l 323 1068 l 323 1068 m 323 -118 l 263 -178 l 94 -178 l 33 -118 l 94 -59 l 263 -59 l 323 -118 l 323 -118 m 323 1068 l 264 1009 l 264 949 l 323 1009 l 383 948 l 383 1008 l 323 1068 l 323 1068 m 323 -118 l 383 -59 l 383 354 l 323 415 l 264 355 l 264 -59 l 323 -118 l 323 -118 m 323 474 l 264 415 l 264 355 l 323 415 l 383 354 l 383 415 l 323 474 l 323 474 "},"m":{"x_min":68,"x_max":1004,"ha":1072,"o":"m 68 534 l 68 59 l 127 0 l 187 59 l 187 534 l 127 594 l 68 534 l 68 534 m 477 533 l 477 59 l 536 0 l 596 59 l 596 533 l 536 594 l 477 533 l 477 533 m 885 533 l 885 59 l 944 0 l 1004 59 l 1004 533 l 944 594 l 885 533 l 885 533 m 127 594 l 187 654 l 476 654 l 536 594 l 476 534 l 187 534 l 127 594 l 127 594 m 536 594 l 596 654 l 885 654 l 944 594 l 885 534 l 596 534 l 536 594 l 536 594 "},"8":{"x_min":68,"x_max":765,"ha":833,"o":"m 127 889 l 187 949 l 646 949 l 705 889 l 646 829 l 187 829 l 127 889 l 127 889 m 127 475 l 187 534 l 646 534 l 705 475 l 646 415 l 187 415 l 127 475 l 127 475 m 127 59 l 187 119 l 646 119 l 705 59 l 646 0 l 187 0 l 127 59 l 127 59 m 705 474 l 765 414 l 765 119 l 705 59 l 646 119 l 646 414 l 705 474 l 705 474 m 705 889 l 765 828 l 765 533 l 705 474 l 646 533 l 646 828 l 705 889 l 705 889 m 127 889 l 68 828 l 68 533 l 127 474 l 187 533 l 187 828 l 127 889 l 127 889 m 127 59 l 68 119 l 68 414 l 127 474 l 187 414 l 187 119 l 127 59 l 127 59 "},"ž":{"x_min":67.828125,"x_max":594.796875,"ha":663,"o":"m 146 1235 l 322 1034 l 324 954 l 254 955 l 78 1157 l 76 1238 l 146 1235 m 325 1035 l 501 1236 l 572 1237 l 571 1157 l 394 955 l 324 954 l 325 1035 m 591 540 l 583 455 l 151 104 l 67 114 l 75 197 l 507 548 l 591 540 m 67 594 l 126 654 l 475 654 l 535 594 l 475 534 l 126 534 l 67 594 l 67 594 m 594 59 l 535 0 l 185 0 l 126 59 l 185 119 l 535 119 l 594 59 l 594 59 "},"R":{"x_min":68,"x_max":766,"ha":834,"o":"m 127 889 l 187 949 l 647 949 l 706 889 l 647 829 l 187 829 l 127 889 l 127 889 m 127 474 l 187 534 l 646 534 l 706 474 l 646 415 l 187 415 l 127 474 l 127 474 m 127 889 l 68 828 l 68 533 l 127 474 l 187 533 l 187 828 l 127 889 l 127 889 m 68 414 l 127 474 l 187 415 l 187 59 l 127 0 l 68 59 l 68 414 l 68 414 m 431 250 l 430 335 l 514 335 l 766 84 l 766 0 l 681 0 l 431 250 l 431 250 m 766 828 l 766 534 l 706 474 l 647 534 l 647 828 l 706 889 l 766 828 l 766 828 "},"á":{"x_min":68,"x_max":596,"ha":664,"o":"m 536 594 l 477 534 l 187 534 l 127 594 l 187 654 l 477 654 l 536 594 m 536 326 l 477 267 l 187 267 l 127 326 l 187 386 l 477 386 l 536 326 m 536 59 l 477 0 l 187 0 l 127 59 l 187 119 l 477 119 l 536 59 m 596 267 l 596 119 l 536 59 l 477 119 l 477 267 l 536 326 l 596 267 l 596 267 m 187 267 l 187 119 l 127 59 l 68 119 l 68 267 l 127 326 l 187 267 l 187 267 m 596 535 l 596 387 l 536 327 l 477 387 l 477 535 l 536 594 l 596 535 l 596 535 m 536 1068 l 353 802 l 353 1015 l 435 1134 l 536 1068 "},"×":{"x_min":67.828125,"x_max":646.34375,"ha":714,"o":"m 196 732 l 646 202 l 628 114 l 516 138 l 67 668 l 84 757 l 196 732 m 644 669 l 198 138 l 86 113 l 69 201 l 514 733 l 626 758 l 644 669 "},"o":{"x_min":68,"x_max":596,"ha":664,"o":"m 127 594 l 187 654 l 477 654 l 536 594 l 477 534 l 187 534 l 127 594 l 127 594 m 536 59 l 596 119 l 596 533 l 536 594 l 477 533 l 477 119 l 536 59 l 536 59 m 127 59 l 187 119 l 187 533 l 127 593 l 68 533 l 68 119 l 127 59 l 127 59 m 187 0 l 477 0 l 536 59 l 477 119 l 187 119 l 127 59 l 187 0 l 187 0 "},"5":{"x_min":68,"x_max":765,"ha":833,"o":"m 127 889 l 187 949 l 646 949 l 705 889 l 646 829 l 187 829 l 127 889 l 127 889 m 127 475 l 187 534 l 646 534 l 705 475 l 646 415 l 187 415 l 127 475 l 127 475 m 127 59 l 187 119 l 646 119 l 705 59 l 646 0 l 187 0 l 127 59 l 127 59 m 705 474 l 765 414 l 765 119 l 705 59 l 646 119 l 646 414 l 705 474 l 705 474 m 127 889 l 68 828 l 68 533 l 127 474 l 187 533 l 187 828 l 127 889 l 127 889 "},"õ":{"x_min":68,"x_max":596,"ha":664,"o":"m 127 594 l 187 654 l 477 654 l 536 594 l 477 534 l 187 534 l 127 594 l 127 594 m 536 59 l 596 119 l 596 533 l 536 594 l 477 533 l 477 119 l 536 59 l 536 59 m 127 59 l 187 119 l 187 533 l 127 593 l 68 533 l 68 119 l 127 59 l 127 59 m 187 0 l 477 0 l 536 59 l 477 119 l 187 119 l 127 59 l 187 0 l 187 0 m 251 1046 l 315 1046 l 407 946 l 407 876 l 343 876 l 251 976 l 251 1046 m 407 876 l 407 947 l 498 1046 l 562 1046 l 563 976 l 471 876 l 407 876 m 96 876 l 96 946 l 187 1046 l 251 1046 l 251 975 l 160 876 l 96 876 "},"7":{"x_min":68.171875,"x_max":706,"ha":774,"o":"m 68 889 l 127 949 l 587 949 l 646 889 l 587 829 l 127 829 l 68 889 l 68 889 m 646 474 l 706 407 l 706 74 l 646 7 l 587 74 l 587 407 l 646 474 l 646 474 m 646 889 l 706 828 l 706 533 l 646 474 l 587 533 l 587 828 l 646 889 l 646 889 "},"K":{"x_min":68,"x_max":754.859375,"ha":823,"o":"m 413 386 l 422 480 l 512 453 l 754 93 l 745 1 l 655 28 l 413 386 l 413 386 m 667 810 l 751 810 l 751 725 l 500 474 l 416 475 l 416 560 l 667 810 l 667 810 m 68 414 l 127 473 l 187 414 l 187 59 l 127 0 l 68 59 l 68 414 l 68 414 m 68 889 l 127 949 l 187 889 l 187 534 l 127 474 l 68 534 l 68 889 l 68 889 m 416 473 l 356 534 l 187 534 l 127 475 l 187 414 l 356 414 l 416 473 l 416 473 "},",":{"x_min":68,"x_max":187,"ha":323,"o":"m 68 119 l 187 119 l 187 -25 l 68 -204 l 68 119 l 68 119 "},"d":{"x_min":68,"x_max":596,"ha":664,"o":"m 127 594 l 187 654 l 477 654 l 536 594 l 477 534 l 187 534 l 127 594 l 127 594 m 536 59 l 477 119 l 477 533 l 536 594 l 596 533 l 596 119 l 536 59 m 127 59 l 68 119 l 68 533 l 127 593 l 187 533 l 187 119 l 127 59 m 187 0 l 127 59 l 187 119 l 477 119 l 536 59 l 477 0 l 187 0 m 536 949 l 596 889 l 596 653 l 536 594 l 477 653 l 477 889 l 536 949 "},"¨":{"x_min":235,"x_max":649,"ha":883,"o":"m 649 884 l 515 884 l 515 1016 l 649 1016 l 649 884 m 369 884 l 235 884 l 235 1016 l 369 1016 l 369 884 "},"Ô":{"x_min":68,"x_max":765,"ha":833,"o":"m 127 889 l 187 949 l 646 949 l 705 889 l 646 829 l 187 829 l 127 889 l 127 889 m 127 59 l 187 119 l 646 119 l 705 59 l 646 0 l 187 0 l 127 59 l 127 59 m 705 474 l 765 414 l 765 119 l 705 59 l 646 119 l 646 414 l 705 474 l 705 474 m 127 889 l 68 828 l 68 533 l 127 474 l 187 533 l 187 828 l 127 889 l 127 889 m 705 889 l 646 828 l 646 533 l 705 474 l 765 533 l 765 828 l 705 889 l 705 889 m 127 59 l 68 119 l 68 414 l 127 474 l 187 414 l 187 119 l 127 59 l 127 59 m 623 1133 l 416 1339 l 416 1422 l 498 1420 l 705 1214 l 705 1132 l 623 1133 m 414 1339 l 208 1133 l 125 1131 l 127 1214 l 333 1421 l 416 1422 l 414 1339 "},"E":{"x_min":68,"x_max":706.03125,"ha":774,"o":"m 127 59 l 187 119 l 646 119 l 706 59 l 646 0 l 187 0 l 127 59 l 127 59 m 127 889 l 187 949 l 646 949 l 705 889 l 646 829 l 187 829 l 127 889 l 127 889 m 127 474 l 187 534 l 646 534 l 706 474 l 646 415 l 187 415 l 127 474 l 127 474 m 127 889 l 68 828 l 68 533 l 127 474 l 187 533 l 187 828 l 127 889 l 127 889 m 127 59 l 68 119 l 68 414 l 127 474 l 187 414 l 187 119 l 127 59 l 127 59 "},"Y":{"x_min":67.828125,"x_max":679.578125,"ha":747,"o":"m 84 947 l 170 917 l 379 561 l 363 470 l 276 500 l 67 856 l 84 947 m 389 469 l 371 560 l 575 918 l 662 950 l 679 859 l 475 501 l 389 469 m 373 474 l 434 414 l 434 59 l 373 0 l 314 59 l 314 414 l 373 474 l 373 474 "},"\"":{"x_min":68,"x_max":476,"ha":544,"o":"m 68 949 l 187 949 l 187 803 l 68 625 l 68 949 m 357 949 l 476 949 l 476 803 l 357 625 l 357 949 "},"‹":{"x_min":67.828125,"x_max":358.109375,"ha":426,"o":"m 356 682 l 150 476 l 67 474 l 69 557 l 275 763 l 358 765 l 356 682 m 150 473 l 356 267 l 358 185 l 275 185 l 69 392 l 67 474 l 150 473 "},"ê":{"x_min":68,"x_max":596,"ha":664,"o":"m 536 594 l 477 534 l 187 534 l 127 594 l 187 654 l 477 654 l 536 594 m 536 326 l 477 267 l 187 267 l 127 326 l 187 386 l 477 386 l 536 326 m 536 59 l 477 0 l 187 0 l 127 59 l 187 119 l 477 119 l 536 59 m 187 267 l 187 119 l 127 59 l 68 119 l 68 267 l 127 326 l 187 267 l 187 267 m 596 535 l 596 387 l 536 327 l 477 387 l 477 535 l 536 594 l 596 535 l 596 535 m 187 535 l 187 387 l 127 327 l 68 387 l 68 535 l 127 594 l 187 535 l 187 535 m 491 958 l 336 1113 l 335 1175 l 397 1174 l 552 1019 l 553 957 l 491 958 m 334 1113 l 180 958 l 117 957 l 118 1019 l 273 1174 l 335 1175 l 334 1113 "},"Ï":{"x_min":67.828125,"x_max":646.34375,"ha":714,"o":"m 356 889 l 417 829 l 417 533 l 356 474 l 297 533 l 297 829 l 356 889 m 356 474 l 417 415 l 417 120 l 356 60 l 297 120 l 297 415 l 356 474 m 646 889 l 586 829 l 417 829 l 356 889 l 417 949 l 586 949 l 646 889 m 646 59 l 586 0 l 417 0 l 356 59 l 417 119 l 586 119 l 646 59 m 356 889 l 297 829 l 127 829 l 67 889 l 127 949 l 297 949 l 356 889 m 356 59 l 297 0 l 127 0 l 67 59 l 127 119 l 297 119 l 356 59 m 563 1137 l 429 1137 l 429 1269 l 563 1269 l 563 1137 m 283 1137 l 149 1137 l 149 1269 l 283 1269 l 283 1137 "},"„":{"x_min":68,"x_max":380,"ha":448,"o":"m 187 197 l 187 -25 l 68 -204 l 68 197 l 187 197 m 380 197 l 380 -25 l 261 -204 l 261 197 l 380 197 "},"Â":{"x_min":68,"x_max":765,"ha":833,"o":"m 127 475 l 187 534 l 646 534 l 705 475 l 646 415 l 187 415 l 127 475 l 127 475 m 127 890 l 187 949 l 646 949 l 705 890 l 646 829 l 187 829 l 127 890 l 127 890 m 705 889 l 765 828 l 765 533 l 705 474 l 646 533 l 646 828 l 705 889 l 705 889 m 127 474 l 68 533 l 68 828 l 127 889 l 187 828 l 187 533 l 127 474 l 127 474 m 68 414 l 68 59 l 127 0 l 187 59 l 187 414 l 127 474 l 68 414 l 68 414 m 705 0 l 765 59 l 765 414 l 705 474 l 646 414 l 646 59 l 705 0 l 705 0 m 621 1133 l 414 1339 l 414 1422 l 496 1420 l 703 1214 l 703 1132 l 621 1133 m 412 1339 l 206 1133 l 123 1131 l 125 1214 l 331 1421 l 414 1422 l 412 1339 "},"Í":{"x_min":67.828125,"x_max":646.34375,"ha":714,"o":"m 356 889 l 417 829 l 417 533 l 356 474 l 297 533 l 297 829 l 356 889 m 356 474 l 417 415 l 417 120 l 356 60 l 297 120 l 297 415 l 356 474 m 646 889 l 586 829 l 417 829 l 356 889 l 417 949 l 586 949 l 646 889 m 646 59 l 586 0 l 417 0 l 356 59 l 417 119 l 586 119 l 646 59 m 356 889 l 297 829 l 127 829 l 67 889 l 127 949 l 297 949 l 356 889 m 356 59 l 297 0 l 127 0 l 67 59 l 127 119 l 297 119 l 356 59 m 538 1321 l 355 1055 l 355 1268 l 437 1387 l 538 1321 "},"´":{"x_min":67.828125,"x_max":250.265625,"ha":318,"o":"m 250 1068 l 67 802 l 67 1015 l 149 1134 l 250 1068 "},"ì":{"x_min":7.3125,"x_max":217,"ha":284,"o":"m 217 0 l 89 0 l 89 757 l 217 757 l 217 0 m 7 1126 l 106 1192 l 187 1071 l 187 856 l 7 1126 "},"±":{"x_min":146,"x_max":991,"ha":1137,"o":"m 991 122 l 146 122 l 146 229 l 512 229 l 512 515 l 146 515 l 146 622 l 512 622 l 512 992 l 625 992 l 625 622 l 991 622 l 991 515 l 625 515 l 625 229 l 991 229 l 991 122 "},"Ú":{"x_min":68,"x_max":765,"ha":833,"o":"m 705 58 l 646 0 l 187 0 l 127 58 l 187 119 l 646 119 l 705 58 l 705 58 m 127 59 l 68 119 l 68 414 l 127 474 l 187 414 l 187 119 l 127 59 l 127 59 m 705 474 l 765 414 l 765 119 l 705 59 l 646 119 l 646 414 l 705 474 l 705 474 m 765 533 l 705 474 l 646 533 l 646 889 l 705 949 l 765 889 l 765 533 m 127 949 l 187 889 l 187 533 l 127 474 l 68 533 l 68 889 l 127 949 m 562 1321 l 379 1055 l 379 1268 l 461 1387 l 562 1321 "},"|":{"x_min":136,"x_max":256,"ha":391,"o":"m 195 474 l 136 549 l 136 1061 l 195 1135 l 256 1061 l 256 548 l 195 474 m 195 -185 l 136 -110 l 136 401 l 195 475 l 256 401 l 256 -111 l 195 -185 "},"§":{"x_min":117,"x_max":765,"ha":883,"o":"m 765 408 q 724 281 765 336 q 617 188 684 226 l 617 184 q 713 103 683 152 q 743 -6 743 54 q 720 -105 743 -58 q 654 -186 698 -152 q 539 -242 605 -224 q 390 -261 474 -261 q 274 -251 331 -261 q 156 -221 218 -242 l 156 -91 l 162 -91 q 277 -133 216 -116 q 410 -150 337 -150 q 556 -116 501 -150 q 611 -24 611 -83 q 597 35 611 13 q 554 74 584 57 q 477 103 526 90 q 373 129 428 115 q 173 219 228 164 q 117 361 117 274 q 155 485 117 428 q 263 581 194 543 l 263 586 q 166 668 194 619 q 138 778 138 718 q 159 877 138 833 q 226 957 181 922 q 337 1011 270 991 q 491 1031 404 1031 q 607 1021 550 1031 q 726 992 664 1012 l 726 861 l 719 861 q 616 899 680 879 q 470 920 552 920 q 327 888 384 920 q 270 798 270 857 q 284 735 270 759 q 328 695 299 711 q 402 667 357 680 q 508 640 446 655 q 704 556 643 609 q 765 408 765 502 m 597 271 q 626 315 616 293 q 637 376 637 337 q 625 435 637 411 q 594 474 614 458 q 549 501 575 490 q 493 520 523 511 q 435 534 466 527 q 356 555 403 541 q 323 533 344 549 q 287 502 302 518 q 257 455 270 484 q 245 393 245 426 q 255 335 245 359 q 285 295 266 311 q 331 268 303 279 q 388 250 358 258 q 446 235 414 243 q 524 214 479 227 q 560 238 538 222 q 597 271 583 254 "},"Ý":{"x_min":67.828125,"x_max":679.578125,"ha":747,"o":"m 84 947 l 170 917 l 379 561 l 363 470 l 276 500 l 67 856 l 84 947 m 389 469 l 371 560 l 575 918 l 662 950 l 679 859 l 475 501 l 389 469 m 373 474 l 434 414 l 434 59 l 373 0 l 314 59 l 314 414 l 373 474 l 373 474 m 548 1321 l 365 1055 l 365 1268 l 447 1387 l 548 1321 "},"b":{"x_min":68,"x_max":596,"ha":664,"o":"m 127 594 l 187 654 l 477 654 l 536 594 l 477 534 l 187 534 l 127 594 l 127 594 m 536 59 l 477 119 l 477 533 l 536 594 l 596 533 l 596 119 l 536 59 m 127 59 l 68 119 l 68 533 l 127 593 l 187 533 l 187 119 l 127 59 m 187 0 l 127 59 l 187 119 l 477 119 l 536 59 l 477 0 l 187 0 m 127 949 l 187 889 l 187 653 l 127 594 l 68 653 l 68 889 l 127 949 "},"q":{"x_min":68,"x_max":596,"ha":664,"o":"m 127 594 l 187 654 l 477 654 l 536 594 l 477 534 l 187 534 l 127 594 l 127 594 m 536 59 l 596 119 l 596 533 l 536 594 l 477 533 l 477 119 l 536 59 l 536 59 m 127 59 l 187 119 l 187 533 l 127 593 l 68 533 l 68 119 l 127 59 l 127 59 m 187 0 l 477 0 l 536 59 l 477 119 l 187 119 l 127 59 l 187 0 l 187 0 m 536 -288 l 596 -232 l 596 0 l 536 59 l 477 0 l 477 -224 l 536 -288 l 536 -288 "},"Ö":{"x_min":68,"x_max":765,"ha":833,"o":"m 127 889 l 187 949 l 646 949 l 705 889 l 646 829 l 187 829 l 127 889 l 127 889 m 127 59 l 187 119 l 646 119 l 705 59 l 646 0 l 187 0 l 127 59 l 127 59 m 705 474 l 765 414 l 765 119 l 705 59 l 646 119 l 646 414 l 705 474 l 705 474 m 127 889 l 68 828 l 68 533 l 127 474 l 187 533 l 187 828 l 127 889 l 127 889 m 705 889 l 646 828 l 646 533 l 705 474 l 765 533 l 765 828 l 705 889 l 705 889 m 127 59 l 68 119 l 68 414 l 127 474 l 187 414 l 187 119 l 127 59 l 127 59 m 631 1137 l 497 1137 l 497 1269 l 631 1269 l 631 1137 m 351 1137 l 217 1137 l 217 1269 l 351 1269 l 351 1137 "},"z":{"x_min":67.828125,"x_max":594.796875,"ha":663,"o":"m 591 540 l 507 548 l 75 197 l 67 114 l 151 104 l 583 455 l 591 540 l 591 540 m 67 594 l 126 654 l 475 654 l 535 594 l 475 534 l 126 534 l 67 594 l 67 594 m 594 59 l 535 0 l 185 0 l 126 59 l 185 119 l 535 119 l 594 59 l 594 59 "},"™":{"x_min":27.125,"x_max":1287,"ha":1354,"o":"m 637 955 l 637 626 l 678 585 l 720 626 l 720 955 l 678 997 l 637 955 m 920 955 l 920 626 l 961 585 l 1003 626 l 1003 955 l 961 997 l 920 955 m 1204 955 l 1204 626 l 1245 585 l 1287 626 l 1287 955 l 1245 997 l 1204 955 m 678 996 l 719 1038 l 920 1039 l 961 997 l 920 955 l 719 955 l 678 996 m 961 996 l 1003 1038 l 1203 1039 l 1245 997 l 1203 955 l 1003 955 l 961 996 m 313 995 l 354 1036 l 555 1037 l 596 995 l 555 954 l 354 954 l 313 995 m 27 994 l 68 1035 l 269 1035 l 310 994 l 269 952 l 68 952 l 27 994 m 270 953 l 270 625 l 311 583 l 353 625 l 353 953 l 311 996 l 270 953 "},"ã":{"x_min":68,"x_max":596,"ha":664,"o":"m 249 1081 l 317 1081 l 413 965 l 414 884 l 345 883 l 249 1000 l 249 1081 l 249 1081 m 413 883 l 413 965 l 510 1081 l 578 1082 l 578 999 l 482 883 l 413 883 l 413 883 m 85 883 l 85 965 l 182 1081 l 249 1081 l 249 999 l 152 883 l 85 883 l 85 883 m 536 593 l 477 654 l 187 654 l 127 594 l 187 534 l 477 533 l 536 593 l 536 593 m 536 326 l 477 386 l 187 386 l 127 326 l 187 267 l 477 267 l 536 326 l 536 326 m 536 59 l 477 119 l 187 119 l 127 59 l 187 0 l 477 0 l 536 59 l 536 59 m 596 267 l 596 119 l 536 59 l 477 119 l 477 267 l 536 326 l 596 267 l 596 267 m 187 267 l 187 119 l 127 59 l 68 119 l 68 267 l 127 326 l 187 267 l 187 267 m 596 535 l 596 387 l 536 327 l 477 387 l 477 535 l 536 594 l 596 535 l 596 535 "},"æ":{"x_min":68,"x_max":945.28125,"ha":1013,"o":"m 536 594 l 477 534 l 188 534 l 128 594 l 188 654 l 477 654 l 536 594 m 536 326 l 477 267 l 188 267 l 128 326 l 188 386 l 477 386 l 536 326 m 536 59 l 477 0 l 188 0 l 128 59 l 188 119 l 477 119 l 536 59 m 596 267 l 596 119 l 536 59 l 477 119 l 477 267 l 536 326 l 596 267 l 596 267 m 188 267 l 188 119 l 128 59 l 68 119 l 68 267 l 128 326 l 188 267 l 188 267 m 596 535 l 596 387 l 536 327 l 477 387 l 477 535 l 536 594 l 596 535 l 596 535 m 945 594 l 885 534 l 596 535 l 536 595 l 596 654 l 885 654 l 945 594 m 945 59 l 885 0 l 596 0 l 536 60 l 596 119 l 885 119 l 945 59 "},"®":{"x_min":68,"x_max":721,"ha":789,"o":"m 68 119 l 68 534 l 127 594 l 187 534 l 187 119 l 127 59 l 68 119 m 602 119 l 602 533 l 661 593 l 721 533 l 721 119 l 661 59 l 602 119 m 602 534 l 187 534 l 127 594 l 187 654 l 602 654 l 661 594 l 602 534 m 602 0 l 187 0 l 127 59 l 187 119 l 602 119 l 661 59 l 602 0 "},"É":{"x_min":68,"x_max":706.03125,"ha":774,"o":"m 127 59 l 187 119 l 646 119 l 706 59 l 646 0 l 187 0 l 127 59 l 127 59 m 127 889 l 187 949 l 646 949 l 705 889 l 646 829 l 187 829 l 127 889 l 127 889 m 127 474 l 187 534 l 646 534 l 706 474 l 646 415 l 187 415 l 127 474 l 127 474 m 127 889 l 68 828 l 68 533 l 127 474 l 187 533 l 187 828 l 127 889 l 127 889 m 127 59 l 68 119 l 68 414 l 127 474 l 187 414 l 187 119 l 127 59 l 127 59 m 582 1321 l 399 1055 l 399 1268 l 481 1387 l 582 1321 "},"~":{"x_min":67.828125,"x_max":680.9375,"ha":749,"o":"m 271 576 l 356 576 l 476 456 l 476 372 l 392 372 l 271 492 l 271 576 l 271 576 m 476 372 l 476 456 l 596 577 l 680 578 l 680 492 l 560 372 l 476 372 l 476 372 m 67 372 l 67 456 l 187 576 l 271 576 l 271 491 l 151 372 l 67 372 l 67 372 "},"³":{"x_min":140,"x_max":648,"ha":753,"o":"m 648 554 q 625 464 648 503 q 565 403 603 426 q 476 368 526 379 q 365 357 426 357 q 246 367 302 357 q 140 396 190 377 l 140 518 l 149 518 q 243 473 177 493 q 372 454 309 454 q 485 478 440 454 q 531 552 531 502 q 490 630 531 610 q 375 651 450 651 l 278 651 l 278 747 l 364 747 q 476 772 440 747 q 513 844 513 798 q 479 910 513 886 q 375 934 445 934 q 257 913 323 934 q 161 868 191 892 l 152 868 l 152 988 q 260 1019 202 1007 q 380 1031 319 1031 q 564 984 499 1031 q 630 866 630 938 q 592 767 630 806 q 494 711 555 729 l 494 706 q 603 656 559 694 q 648 554 648 619 "},"¡":{"x_min":68,"x_max":188,"ha":256,"o":"m 128 7 l 188 66 l 188 541 l 128 725 l 68 541 l 68 66 l 128 7 m 188 837 l 68 837 l 68 956 l 188 956 l 188 837 "},"[":{"x_min":136,"x_max":484.25,"ha":518,"o":"m 195 474 l 136 415 l 136 1 l 195 -59 l 255 0 l 255 415 l 195 474 l 195 474 m 195 -118 l 255 -59 l 424 -59 l 484 -118 l 424 -178 l 255 -178 l 195 -118 l 195 -118 m 195 1068 l 255 1128 l 424 1128 l 484 1068 l 424 1009 l 255 1009 l 195 1068 l 195 1068 m 195 -118 l 255 -59 l 255 0 l 195 -59 l 136 1 l 136 -58 l 195 -118 l 195 -118 m 195 1068 l 136 1009 l 136 595 l 195 534 l 255 594 l 255 1009 l 195 1068 l 195 1068 m 195 474 l 255 534 l 255 594 l 195 534 l 136 595 l 136 535 l 195 474 l 195 474 "},"L":{"x_min":68,"x_max":706.03125,"ha":774,"o":"m 68 889 l 127 949 l 187 889 l 187 533 l 127 474 l 68 534 l 68 889 l 68 889 m 127 59 l 187 119 l 187 414 l 127 474 l 68 414 l 68 119 l 127 59 l 127 59 m 706 59 l 646 119 l 187 119 l 127 59 l 187 0 l 646 0 l 706 59 l 706 59 "}," ":{"x_min":0,"x_max":0,"ha":610},"%":{"x_min":68,"x_max":767,"ha":835,"o":"m 706 474 l 647 415 l 647 119 l 706 60 l 766 119 l 766 415 l 706 474 l 706 474 m 416 475 l 476 534 l 646 534 l 706 474 l 646 415 l 476 415 l 416 475 l 416 475 m 416 59 l 477 119 l 477 414 l 416 474 l 357 414 l 357 119 l 416 59 l 416 59 m 646 0 l 706 59 l 646 119 l 476 119 l 416 59 l 476 0 l 646 0 l 646 0 m 416 889 l 357 829 l 357 533 l 416 474 l 477 533 l 476 829 l 416 889 l 416 889 m 127 890 l 187 949 l 356 949 l 416 889 l 356 829 l 187 829 l 127 890 l 127 890 m 127 474 l 187 533 l 187 828 l 127 889 l 68 828 l 68 533 l 127 474 l 127 474 m 356 415 l 416 474 l 356 534 l 187 534 l 127 474 l 187 415 l 356 415 l 356 415 m 767 949 l 766 864 l 646 744 l 562 744 l 562 828 l 682 949 l 767 949 l 767 949 m 273 204 l 273 120 l 152 0 l 68 0 l 68 84 l 188 204 l 273 204 l 273 204 "},"P":{"x_min":68,"x_max":765,"ha":833,"o":"m 127 889 l 187 949 l 646 949 l 705 889 l 646 829 l 187 829 l 127 889 l 127 889 m 127 474 l 187 534 l 646 534 l 705 474 l 646 415 l 187 415 l 127 474 l 127 474 m 127 889 l 68 828 l 68 533 l 127 474 l 187 533 l 187 828 l 127 889 l 127 889 m 68 414 l 127 474 l 187 415 l 187 59 l 127 0 l 68 59 l 68 414 l 68 414 m 765 828 l 765 534 l 705 474 l 646 534 l 646 828 l 705 889 l 765 828 l 765 828 "},"À":{"x_min":68,"x_max":765,"ha":833,"o":"m 127 475 l 187 534 l 646 534 l 705 475 l 646 415 l 187 415 l 127 475 l 127 475 m 127 890 l 187 949 l 646 949 l 705 890 l 646 829 l 187 829 l 127 890 l 127 890 m 705 889 l 765 828 l 765 533 l 705 474 l 646 533 l 646 828 l 705 889 l 705 889 m 127 474 l 68 533 l 68 828 l 127 889 l 187 828 l 187 533 l 127 474 l 127 474 m 68 414 l 68 59 l 127 0 l 187 59 l 187 414 l 127 474 l 68 414 l 68 414 m 705 0 l 765 59 l 765 414 l 705 474 l 646 414 l 646 59 l 705 0 l 705 0 m 228 1290 l 327 1356 l 408 1236 l 408 1021 l 228 1290 l 228 1290 "},"_":{"x_min":67.828125,"x_max":646.34375,"ha":714,"o":"m 67 59 l 127 119 l 586 119 l 646 59 l 586 0 l 127 0 l 67 59 l 67 59 "},"ñ":{"x_min":68,"x_max":596,"ha":664,"o":"m 68 534 l 68 59 l 127 0 l 187 59 l 187 534 l 127 594 l 68 534 l 68 534 m 477 533 l 477 59 l 536 0 l 596 59 l 596 533 l 536 594 l 477 533 l 477 533 m 127 594 l 187 654 l 477 654 l 536 594 l 477 534 l 187 534 l 127 594 l 127 594 m 245 1049 l 316 1049 l 418 948 l 418 877 l 347 876 l 245 978 l 245 1049 m 418 877 l 418 948 l 519 1050 l 590 1050 l 591 978 l 490 877 l 418 877 m 73 876 l 73 948 l 174 1049 l 245 1050 l 245 978 l 144 876 l 73 876 "},"+":{"x_min":67.828125,"x_max":646.34375,"ha":714,"o":"m 67 475 l 127 534 l 586 534 l 646 475 l 586 415 l 127 415 l 67 475 l 67 475 m 358 764 l 417 704 l 417 245 l 358 186 l 297 245 l 297 704 l 358 764 l 358 764 "},"‚":{"x_min":34,"x_max":153,"ha":221,"o":"m 153 197 l 153 -25 l 34 -204 l 34 197 l 153 197 "},"½":{"x_min":116.25,"x_max":1326.234375,"ha":1389,"o":"m 370 383 l 258 383 l 258 845 l 116 845 l 116 924 q 228 939 185 924 q 277 1013 270 954 l 370 1013 l 370 383 m 956 1010 l 427 0 l 315 0 l 844 1010 l 956 1010 m 1326 0 l 859 0 l 859 100 q 966 182 921 147 q 1038 242 1012 217 q 1134 349 1112 312 q 1156 442 1156 386 q 1126 514 1156 489 q 1044 540 1096 540 q 948 519 997 540 q 872 477 900 499 l 862 477 l 862 598 q 957 628 906 617 q 1061 640 1008 640 q 1224 586 1167 640 q 1282 450 1282 532 q 1254 336 1282 387 q 1155 222 1226 286 q 1073 157 1121 193 q 988 94 1025 121 l 1326 94 l 1326 0 "},"Æ":{"x_min":68,"x_max":1283.828125,"ha":1352,"o":"m 705 60 l 765 120 l 1224 120 l 1283 60 l 1224 1 l 765 1 l 705 60 l 705 60 m 705 889 l 765 949 l 1224 949 l 1283 889 l 1224 829 l 765 829 l 705 889 l 705 889 m 705 475 l 765 536 l 1224 536 l 1283 475 l 1224 416 l 765 416 l 705 475 l 705 475 m 705 889 l 646 829 l 646 534 l 705 475 l 765 534 l 765 829 l 705 889 l 705 889 m 705 60 l 646 120 l 646 415 l 705 475 l 765 415 l 765 120 l 705 60 l 705 60 m 705 60 l 765 120 l 1224 120 l 1283 60 l 1224 1 l 765 1 l 705 60 l 705 60 m 127 475 l 187 536 l 646 536 l 705 475 l 646 416 l 187 416 l 127 475 l 127 475 m 705 889 l 765 949 l 1224 949 l 1283 889 l 1224 829 l 765 829 l 705 889 l 705 889 m 705 889 l 646 829 l 646 534 l 705 475 l 765 534 l 765 563 l 646 563 l 646 683 l 765 683 l 765 829 l 705 889 l 705 889 m 705 60 l 646 120 l 646 415 l 705 475 l 765 415 l 765 120 l 705 60 l 705 60 m 127 889 l 68 829 l 68 534 l 127 475 l 187 534 l 187 829 l 127 889 l 127 889 m 127 889 l 187 949 l 646 949 l 705 889 l 646 829 l 187 829 l 127 889 l 127 889 m 127 60 l 68 120 l 68 415 l 127 475 l 187 415 l 187 120 l 127 60 l 127 60 "},"Ë":{"x_min":68,"x_max":706.03125,"ha":774,"o":"m 127 59 l 187 119 l 646 119 l 706 59 l 646 0 l 187 0 l 127 59 l 127 59 m 127 889 l 187 949 l 646 949 l 705 889 l 646 829 l 187 829 l 127 889 l 127 889 m 127 474 l 187 534 l 646 534 l 706 474 l 646 415 l 187 415 l 127 474 l 127 474 m 127 889 l 68 828 l 68 533 l 127 474 l 187 533 l 187 828 l 127 889 l 127 889 m 127 59 l 68 119 l 68 414 l 127 474 l 187 414 l 187 119 l 127 59 l 127 59 m 609 1137 l 475 1137 l 475 1269 l 609 1269 l 609 1137 m 329 1137 l 195 1137 l 195 1269 l 329 1269 l 329 1137 "},"'":{"x_min":68,"x_max":187,"ha":255,"o":"m 68 949 l 187 949 l 187 803 l 68 625 l 68 949 l 68 949 "},"Š":{"x_min":68,"x_max":765,"ha":833,"o":"m 178 1408 l 384 1201 l 385 1119 l 303 1120 l 96 1326 l 95 1409 l 178 1408 m 386 1201 l 592 1408 l 675 1408 l 674 1326 l 467 1119 l 385 1119 l 386 1201 m 127 889 l 187 949 l 646 949 l 705 889 l 646 829 l 187 829 l 127 889 l 127 889 m 127 475 l 187 534 l 646 534 l 705 475 l 646 415 l 187 415 l 127 475 l 127 475 m 127 59 l 187 119 l 646 119 l 705 59 l 646 0 l 187 0 l 127 59 l 127 59 m 705 474 l 765 414 l 765 119 l 705 59 l 646 119 l 646 414 l 705 474 l 705 474 m 127 889 l 187 828 l 187 533 l 127 474 l 68 533 l 68 828 l 127 889 "},"ª":{"x_min":0,"x_max":0,"ha":758},"Œ":{"x_min":68,"x_max":1283.828125,"ha":1352,"o":"m 705 59 l 765 119 l 1224 119 l 1283 59 l 1224 0 l 765 0 l 705 59 l 705 59 m 705 889 l 765 949 l 1224 949 l 1283 889 l 1224 829 l 765 829 l 705 889 l 705 889 m 705 474 l 765 534 l 1224 534 l 1283 474 l 1224 415 l 765 415 l 705 474 l 705 474 m 705 889 l 646 828 l 646 533 l 705 474 l 765 533 l 765 828 l 705 889 l 705 889 m 705 59 l 646 119 l 646 414 l 705 474 l 765 414 l 765 119 l 705 59 l 705 59 m 705 59 l 765 119 l 1224 119 l 1283 59 l 1224 0 l 765 0 l 705 59 l 705 59 m 127 59 l 187 119 l 646 119 l 705 59 l 646 0 l 187 0 l 127 59 l 127 59 m 705 889 l 765 949 l 1224 949 l 1283 889 l 1224 829 l 765 829 l 705 889 l 705 889 m 705 888 l 646 828 l 646 533 l 705 474 l 765 533 l 765 562 l 646 562 l 646 681 l 765 681 l 765 828 l 705 888 l 705 888 m 705 59 l 646 119 l 646 414 l 705 474 l 765 414 l 765 119 l 705 59 l 705 59 m 127 889 l 68 828 l 68 533 l 127 474 l 187 533 l 187 828 l 127 889 l 127 889 m 127 889 l 187 949 l 646 949 l 705 889 l 646 829 l 187 829 l 127 889 l 127 889 m 127 59 l 68 119 l 68 414 l 127 474 l 187 414 l 187 119 l 127 59 l 127 59 "},"ð":{"x_min":72,"x_max":771,"ha":850,"o":"m 771 431 q 674 95 771 212 q 415 -21 578 -21 q 165 70 259 -21 q 72 327 72 161 q 164 570 72 481 q 394 660 257 660 q 520 642 468 660 q 631 588 573 624 q 563 736 609 664 q 459 859 518 809 l 279 750 l 235 815 l 395 912 q 290 984 338 957 q 178 1044 241 1012 l 178 1055 l 378 1055 q 435 1015 401 1038 q 493 975 468 992 l 636 1062 l 681 996 l 554 922 q 714 701 658 822 q 771 431 771 580 m 574 152 q 625 250 607 192 q 643 409 643 307 q 641 450 643 431 q 639 489 640 468 q 532 534 588 519 q 418 549 476 549 q 261 489 318 549 q 204 326 204 430 q 261 145 204 204 q 415 86 318 86 q 502 100 460 86 q 574 152 543 115 "},"T":{"x_min":67.828125,"x_max":765.71875,"ha":834,"o":"m 416 889 l 477 829 l 477 533 l 416 474 l 357 533 l 357 829 l 416 889 m 765 889 l 706 829 l 476 829 l 416 889 l 476 949 l 706 949 l 765 889 m 416 889 l 356 829 l 127 829 l 67 889 l 127 949 l 356 949 l 416 889 m 416 0 l 357 59 l 357 414 l 416 474 l 477 414 l 477 59 l 416 0 "},"š":{"x_min":68,"x_max":596,"ha":664,"o":"m 149 1235 l 325 1034 l 327 954 l 257 955 l 80 1157 l 79 1238 l 149 1235 m 328 1035 l 504 1236 l 575 1237 l 573 1157 l 397 955 l 327 954 l 328 1035 m 536 594 l 477 534 l 187 534 l 127 594 l 187 654 l 477 654 l 536 594 m 536 326 l 477 267 l 187 267 l 127 326 l 187 386 l 477 386 l 536 326 m 536 59 l 477 0 l 187 0 l 127 59 l 187 119 l 477 119 l 536 59 m 596 267 l 596 119 l 536 59 l 477 119 l 477 267 l 536 326 l 596 267 l 596 267 m 187 535 l 187 387 l 127 327 l 68 387 l 68 535 l 127 594 l 187 535 l 187 535 "},"Þ":{"x_min":136,"x_max":796,"ha":841,"o":"m 796 533 q 772 413 796 471 q 707 317 748 356 q 580 242 655 266 q 404 218 506 218 l 270 218 l 270 0 l 136 0 l 136 1010 l 270 1010 l 270 827 l 408 827 q 564 811 499 827 q 676 766 630 796 q 764 672 732 730 q 796 533 796 615 m 656 530 q 638 615 656 579 q 582 675 620 651 q 507 704 550 696 q 402 713 463 713 l 270 713 l 270 331 l 383 331 q 515 344 463 331 q 598 389 566 358 q 642 451 628 417 q 656 530 656 486 "},"j":{"x_min":67.828125,"x_max":536,"ha":604,"o":"m 417 949 l 536 949 l 536 829 l 417 829 l 417 949 m 476 653 l 536 594 l 536 119 l 476 59 l 417 119 l 417 594 l 476 653 m 417 0 l 476 59 l 536 0 l 536 -174 l 476 -233 l 417 -174 l 417 0 l 417 0 m 67 -233 l 127 -174 l 417 -174 l 476 -233 l 417 -289 l 127 -289 l 67 -233 l 67 -233 "},"1":{"x_min":579,"x_max":698,"ha":766,"o":"m 638 474 l 698 405 l 698 68 l 638 0 l 579 68 l 579 405 l 638 474 l 638 474 m 638 949 l 698 880 l 698 542 l 638 474 l 579 542 l 579 880 l 638 949 l 638 949 "},"›":{"x_min":67.828125,"x_max":357.421875,"ha":425,"o":"m 68 266 l 275 472 l 357 473 l 356 391 l 149 184 l 67 184 l 68 266 m 275 475 l 68 681 l 67 764 l 149 762 l 356 556 l 357 473 l 275 475 "},"ä":{"x_min":68,"x_max":596,"ha":664,"o":"m 536 594 l 477 534 l 187 534 l 127 594 l 187 654 l 477 654 l 536 594 m 536 326 l 477 267 l 187 267 l 127 326 l 187 386 l 477 386 l 536 326 m 536 59 l 477 0 l 187 0 l 127 59 l 187 119 l 477 119 l 536 59 m 596 267 l 596 119 l 536 59 l 477 119 l 477 267 l 536 326 l 596 267 l 596 267 m 187 267 l 187 119 l 127 59 l 68 119 l 68 267 l 127 326 l 187 267 l 187 267 m 596 535 l 596 387 l 536 327 l 477 387 l 477 535 l 536 594 l 596 535 l 596 535 m 540 884 l 406 884 l 406 1016 l 540 1016 l 540 884 m 260 884 l 126 884 l 126 1016 l 260 1016 l 260 884 "},"<":{"x_min":135.640625,"x_max":425.921875,"ha":562,"o":"m 425 765 l 424 682 l 218 476 l 135 474 l 137 557 l 343 763 l 425 765 m 135 474 l 218 473 l 424 267 l 425 185 l 343 185 l 137 392 l 135 474 "},"£":{"x_min":67.828125,"x_max":788.765625,"ha":857,"o":"m 788 889 l 729 829 l 559 829 l 499 889 l 559 949 l 729 949 l 788 889 m 499 885 l 537 810 l 430 473 l 354 434 l 316 508 l 423 846 l 499 885 m 358 433 l 372 349 l 164 63 l 81 48 l 67 132 l 275 419 l 358 433 m 786 59 l 729 0 l 499 0 l 439 59 l 499 119 l 729 119 l 786 59 m 729 414 l 672 355 l 442 355 l 382 414 l 442 474 l 672 474 l 729 414 m 379 119 l 439 59 l 379 0 l 229 0 l 193 59 l 235 119 l 379 119 "},"¹":{"x_min":198,"x_max":621,"ha":753,"o":"m 621 384 l 203 384 l 203 467 l 362 467 l 362 853 l 198 853 l 198 928 q 265 932 228 928 q 322 945 301 936 q 362 970 347 955 q 379 1013 377 985 l 471 1013 l 471 467 l 621 467 l 621 384 "},"t":{"x_min":68,"x_max":596.15625,"ha":664,"o":"m 127 594 l 187 654 l 476 654 l 536 594 l 476 534 l 187 534 l 127 594 l 127 594 m 127 949 l 187 889 l 187 653 l 127 594 l 68 653 l 68 889 l 127 949 m 596 59 l 536 0 l 187 0 l 127 59 l 187 119 l 536 119 l 596 59 m 68 533 l 127 594 l 187 533 l 187 119 l 127 59 l 68 119 l 68 533 "},"¬":{"x_min":67.828125,"x_max":965,"ha":1033,"o":"m 67 475 l 127 535 l 849 535 l 909 475 l 849 416 l 127 416 l 67 475 m 905 77 l 846 136 l 846 416 l 905 475 l 965 416 l 965 136 l 905 77 "},"ù":{"x_min":68,"x_max":596,"ha":664,"o":"m 187 0 l 477 0 l 536 59 l 477 119 l 187 119 l 127 59 l 187 0 l 187 0 m 127 654 l 187 594 l 187 119 l 127 59 l 68 119 l 68 594 l 127 654 l 127 654 m 536 654 l 596 594 l 596 119 l 536 59 l 477 119 l 477 594 l 536 654 l 536 654 m 168 1037 l 267 1103 l 348 983 l 348 768 l 168 1037 l 168 1037 "},"W":{"x_min":68,"x_max":766,"ha":834,"o":"m 127 59 l 68 119 l 68 414 l 127 474 l 187 414 l 187 119 l 127 59 l 127 59 m 416 59 l 357 119 l 357 414 l 416 474 l 477 414 l 477 119 l 416 59 l 416 59 m 706 473 l 766 414 l 766 119 l 706 58 l 647 119 l 647 414 l 706 473 l 706 473 m 766 533 l 706 474 l 647 533 l 647 889 l 706 949 l 766 889 l 766 533 m 127 949 l 187 889 l 187 533 l 127 474 l 68 533 l 68 889 l 127 949 m 647 0 l 477 0 l 416 58 l 477 119 l 647 119 l 706 58 l 647 0 m 357 0 l 187 0 l 127 58 l 187 119 l 357 119 l 416 58 l 357 0 "},"ï":{"x_min":0,"x_max":374,"ha":375,"o":"m 374 885 l 246 885 l 246 1017 l 374 1017 l 374 885 m 128 885 l 0 885 l 0 1017 l 128 1017 l 128 885 m 251 0 l 123 0 l 123 757 l 251 757 l 251 0 "},">":{"x_min":135.640625,"x_max":425.25,"ha":561,"o":"m 135 184 l 136 266 l 343 472 l 425 473 l 424 391 l 217 184 l 135 184 m 425 473 l 343 475 l 136 681 l 135 764 l 217 762 l 424 556 l 425 473 "},"v":{"x_min":67.828125,"x_max":691.78125,"ha":760,"o":"m 67 566 l 99 653 l 179 608 l 377 86 l 345 0 l 265 44 l 67 566 m 488 45 l 406 1 l 377 88 l 580 608 l 661 652 l 691 565 l 488 45 "},"û":{"x_min":67.765625,"x_max":598,"ha":666,"o":"m 189 0 l 479 0 l 538 59 l 479 119 l 189 119 l 129 59 l 189 0 l 189 0 m 129 654 l 189 594 l 189 119 l 129 59 l 70 119 l 70 594 l 129 654 l 129 654 m 538 654 l 598 594 l 598 119 l 538 59 l 479 119 l 479 594 l 538 654 l 538 654 m 513 879 l 328 1064 l 327 1138 l 401 1136 l 586 952 l 587 878 l 513 879 m 326 1064 l 141 879 l 67 878 l 68 952 l 253 1137 l 327 1138 l 326 1064 "},"Ò":{"x_min":68,"x_max":765,"ha":833,"o":"m 127 889 l 187 949 l 646 949 l 705 889 l 646 829 l 187 829 l 127 889 l 127 889 m 127 59 l 187 119 l 646 119 l 705 59 l 646 0 l 187 0 l 127 59 l 127 59 m 705 474 l 765 414 l 765 119 l 705 59 l 646 119 l 646 414 l 705 474 l 705 474 m 127 889 l 68 828 l 68 533 l 127 474 l 187 533 l 187 828 l 127 889 l 127 889 m 705 889 l 646 828 l 646 533 l 705 474 l 765 533 l 765 828 l 705 889 l 705 889 m 127 59 l 68 119 l 68 414 l 127 474 l 187 414 l 187 119 l 127 59 l 127 59 m 255 1290 l 354 1356 l 435 1236 l 435 1021 l 255 1290 l 255 1290 "},"&":{"x_min":68,"x_max":765.28125,"ha":833,"o":"m 416 474 l 357 415 l 357 119 l 416 59 l 477 119 l 477 414 l 416 474 l 416 474 m 764 704 l 682 703 l 476 497 l 474 414 l 557 416 l 763 622 l 764 704 l 764 704 m 765 0 l 763 82 l 557 289 l 475 290 l 476 207 l 682 1 l 765 0 l 765 0 m 127 59 l 187 119 l 187 414 l 127 474 l 68 414 l 68 119 l 127 59 l 127 59 m 357 0 l 416 59 l 357 119 l 187 119 l 127 59 l 187 0 l 357 0 l 357 0 m 416 889 l 357 829 l 357 534 l 416 474 l 477 534 l 477 829 l 416 889 l 416 889 m 127 890 l 187 949 l 357 949 l 416 889 l 357 829 l 187 829 l 127 890 l 127 890 m 127 474 l 187 533 l 187 828 l 127 889 l 68 828 l 68 533 l 127 474 l 127 474 m 357 414 l 416 474 l 357 534 l 187 534 l 127 474 l 187 414 l 357 415 l 357 414 "},"Ð":{"x_min":-0.234375,"x_max":927,"ha":995,"o":"m 288 59 l 348 119 l 808 119 l 867 59 l 808 0 l 348 0 l 288 59 l 288 59 m 867 474 l 927 414 l 927 119 l 867 59 l 808 119 l 808 414 l 867 474 l 867 474 m 288 889 l 348 829 l 348 533 l 288 474 l 229 533 l 229 829 l 288 889 m 576 886 l 667 862 l 875 568 l 868 474 l 778 499 l 569 792 l 576 886 m 288 59 l 229 119 l 229 414 l 288 474 l 348 414 l 348 119 l 288 59 l 288 59 m 348 949 l 517 949 l 577 889 l 517 829 l 348 829 l 288 889 l 348 949 m 288 474 l 348 534 l 517 534 l 577 474 l 517 415 l 348 415 l 288 474 l 288 474 m 0 474 l 59 534 l 229 534 l 288 474 l 229 415 l 59 415 l 0 474 l 0 474 "},"I":{"x_min":67.828125,"x_max":646.34375,"ha":714,"o":"m 356 889 l 417 829 l 417 533 l 356 474 l 297 533 l 297 829 l 356 889 m 356 474 l 417 415 l 417 120 l 356 60 l 297 120 l 297 415 l 356 474 m 646 889 l 586 829 l 417 829 l 356 889 l 417 949 l 586 949 l 646 889 m 646 59 l 586 0 l 417 0 l 356 59 l 417 119 l 586 119 l 646 59 m 356 889 l 297 829 l 127 829 l 67 889 l 127 949 l 297 949 l 356 889 m 356 59 l 297 0 l 127 0 l 67 59 l 127 119 l 297 119 l 356 59 "},"G":{"x_min":68,"x_max":765,"ha":833,"o":"m 127 889 l 187 949 l 646 949 l 705 889 l 646 829 l 187 829 l 127 889 l 127 889 m 127 59 l 187 119 l 646 119 l 705 59 l 646 0 l 187 0 l 127 59 l 127 59 m 705 475 l 765 415 l 765 119 l 705 60 l 646 119 l 646 415 l 705 475 l 705 475 m 127 889 l 68 828 l 68 533 l 127 474 l 187 533 l 187 828 l 127 889 l 127 889 m 127 59 l 68 119 l 68 414 l 127 474 l 187 414 l 187 119 l 127 59 l 127 59 m 416 474 l 476 534 l 646 534 l 705 475 l 646 415 l 476 415 l 416 474 l 416 474 "},"`":{"x_min":67.828125,"x_max":247.546875,"ha":315,"o":"m 67 1037 l 166 1103 l 247 983 l 247 768 l 67 1037 l 67 1037 "},"·":{"x_min":172,"x_max":334,"ha":505,"o":"m 334 347 l 172 347 l 172 539 l 334 539 l 334 347 "},"r":{"x_min":68,"x_max":536.28125,"ha":604,"o":"m 127 594 l 187 654 l 476 654 l 536 594 l 476 534 l 187 534 l 127 594 l 127 594 m 127 0 l 187 59 l 187 533 l 127 594 l 68 533 l 68 59 l 127 0 l 127 0 "},"¿":{"x_min":68,"x_max":765.671875,"ha":834,"o":"m 705 21 l 646 -38 l 187 -37 l 127 22 l 187 82 l 646 82 l 705 21 m 127 22 l 187 82 l 187 377 l 128 436 l 68 377 l 68 82 l 127 22 m 705 21 l 765 82 l 765 377 l 706 436 l 647 377 l 646 82 l 705 21 m 127 437 l 209 437 l 416 643 l 417 726 l 335 726 l 128 519 l 127 437 m 477 792 l 357 792 l 358 912 l 478 911 l 477 792 "},"ý":{"x_min":67.6875,"x_max":601,"ha":669,"o":"m 84 652 l 167 633 l 478 157 l 460 74 l 377 92 l 67 568 l 84 652 m 481 594 l 541 652 l 601 594 l 601 119 l 541 59 l 478 119 l 481 594 l 481 594 m 541 -295 l 481 -239 l 481 0 l 541 59 l 601 0 l 601 -239 l 541 -295 m 496 1068 l 313 802 l 313 1015 l 395 1134 l 496 1068 "},"x":{"x_min":67.828125,"x_max":516.8125,"ha":585,"o":"m 80 652 l 167 627 l 516 91 l 503 2 l 416 26 l 67 562 l 80 652 m 501 652 l 515 562 l 169 26 l 82 1 l 69 90 l 414 627 l 501 652 "},"è":{"x_min":68,"x_max":596,"ha":664,"o":"m 536 594 l 477 534 l 187 534 l 127 594 l 187 654 l 477 654 l 536 594 m 536 326 l 477 267 l 187 267 l 127 326 l 187 386 l 477 386 l 536 326 m 536 59 l 477 0 l 187 0 l 127 59 l 187 119 l 477 119 l 536 59 m 187 267 l 187 119 l 127 59 l 68 119 l 68 267 l 127 326 l 187 267 l 187 267 m 596 535 l 596 387 l 536 327 l 477 387 l 477 535 l 536 594 l 596 535 l 596 535 m 187 535 l 187 387 l 127 327 l 68 387 l 68 535 l 127 594 l 187 535 l 187 535 m 151 1037 l 250 1103 l 331 983 l 331 768 l 151 1037 l 151 1037 "},"º":{"x_min":82,"x_max":675,"ha":758,"o":"m 675 695 q 592 447 675 535 q 378 360 509 360 q 162 449 242 360 q 82 695 82 539 q 162 940 82 850 q 378 1031 242 1031 q 592 942 509 1031 q 675 695 675 854 m 552 695 q 506 870 552 812 q 378 929 460 929 q 250 869 296 929 q 205 695 205 810 q 250 520 205 579 q 378 462 296 462 q 506 520 460 462 q 552 695 552 578 "},"Ø":{"x_min":68,"x_max":765,"ha":833,"o":"m 127 889 l 187 949 l 646 949 l 705 889 l 646 829 l 187 829 l 127 889 l 127 889 m 127 59 l 187 119 l 646 119 l 705 59 l 646 0 l 187 0 l 127 59 l 127 59 m 705 474 l 765 414 l 765 119 l 705 59 l 646 119 l 646 414 l 705 474 l 705 474 m 127 889 l 68 828 l 68 533 l 127 474 l 187 533 l 187 828 l 127 889 l 127 889 m 705 889 l 646 828 l 646 533 l 705 474 l 765 533 l 765 828 l 705 889 l 705 889 m 127 59 l 68 119 l 68 414 l 127 474 l 187 414 l 187 119 l 127 59 l 127 59 m 602 789 l 524 773 l 224 234 l 251 160 l 328 177 l 628 714 l 602 789 l 602 789 "},"÷":{"x_min":67.828125,"x_max":797.59375,"ha":865,"o":"m 527 693 l 366 693 l 366 880 l 527 880 l 527 693 m 527 5 l 366 5 l 366 192 l 527 192 l 527 5 m 67 475 l 127 534 l 737 534 l 797 475 l 737 415 l 127 415 l 67 475 "},"h":{"x_min":68,"x_max":596,"ha":664,"o":"m 477 654 l 536 594 l 477 534 l 187 534 l 127 594 l 187 654 l 477 654 m 536 0 l 477 59 l 477 533 l 536 594 l 596 533 l 596 59 l 536 0 l 536 0 m 127 0 l 68 59 l 68 533 l 127 594 l 187 533 l 187 59 l 127 0 l 127 0 m 127 949 l 187 889 l 187 653 l 127 594 l 68 653 l 68 889 l 127 949 "},".":{"x_min":68,"x_max":210,"ha":346,"o":"m 68 142 l 210 142 l 210 0 l 69 0 l 68 142 l 68 142 "},";":{"x_min":136,"x_max":280,"ha":416,"o":"m 136 749 l 280 749 l 280 604 l 136 604 l 136 749 m 136 345 l 280 345 l 280 200 l 136 21 l 136 345 "},"f":{"x_min":68,"x_max":596.15625,"ha":630,"o":"m 127 594 l 187 654 l 476 654 l 536 594 l 476 534 l 187 534 l 127 594 l 127 594 m 596 889 l 536 829 l 187 829 l 127 889 l 187 949 l 536 949 l 596 889 m 127 889 l 187 828 l 187 653 l 127 594 l 68 653 l 68 828 l 127 889 m 127 0 l 68 59 l 68 533 l 127 594 l 187 533 l 187 59 l 127 0 "},"“":{"x_min":67.828125,"x_max":461.875,"ha":530,"o":"m 166 1103 l 247 983 l 247 768 l 67 1037 l 166 1103 m 381 1103 l 461 983 l 461 768 l 282 1037 l 381 1103 "},"A":{"x_min":68,"x_max":765,"ha":833,"o":"m 127 475 l 187 534 l 646 534 l 705 475 l 646 415 l 187 415 l 127 475 l 127 475 m 127 890 l 187 949 l 646 949 l 705 890 l 646 829 l 187 829 l 127 890 l 127 890 m 705 889 l 765 828 l 765 533 l 705 474 l 646 533 l 646 828 l 705 889 l 705 889 m 127 474 l 68 533 l 68 828 l 127 889 l 187 828 l 187 533 l 127 474 l 127 474 m 68 414 l 68 59 l 127 0 l 187 59 l 187 414 l 127 474 l 68 414 l 68 414 m 705 0 l 765 59 l 765 414 l 705 474 l 646 414 l 646 59 l 705 0 l 705 0 "},"6":{"x_min":68,"x_max":765,"ha":833,"o":"m 127 889 l 187 949 l 646 949 l 705 889 l 646 829 l 187 829 l 127 889 l 127 889 m 127 475 l 187 534 l 646 534 l 705 475 l 646 415 l 187 415 l 127 475 l 127 475 m 127 59 l 187 119 l 646 119 l 705 59 l 646 0 l 187 0 l 127 59 l 127 59 m 705 474 l 765 414 l 765 119 l 705 59 l 646 119 l 646 414 l 705 474 l 705 474 m 127 889 l 68 828 l 68 533 l 127 474 l 187 533 l 187 828 l 127 889 l 127 889 m 127 59 l 68 119 l 68 414 l 127 474 l 187 414 l 187 119 l 127 59 l 127 59 "},"‘":{"x_min":67.828125,"x_max":247.546875,"ha":315,"o":"m 166 1103 l 247 983 l 247 768 l 67 1037 l 166 1103 "},"O":{"x_min":68,"x_max":765,"ha":833,"o":"m 127 889 l 187 949 l 646 949 l 705 889 l 646 829 l 187 829 l 127 889 l 127 889 m 127 59 l 187 119 l 646 119 l 705 59 l 646 0 l 187 0 l 127 59 l 127 59 m 705 474 l 765 414 l 765 119 l 705 59 l 646 119 l 646 414 l 705 474 l 705 474 m 127 889 l 68 828 l 68 533 l 127 474 l 187 533 l 187 828 l 127 889 l 127 889 m 705 889 l 646 828 l 646 533 l 705 474 l 765 533 l 765 828 l 705 889 l 705 889 m 127 59 l 68 119 l 68 414 l 127 474 l 187 414 l 187 119 l 127 59 l 127 59 "},"n":{"x_min":68,"x_max":596,"ha":664,"o":"m 68 534 l 68 59 l 127 0 l 187 59 l 187 534 l 127 594 l 68 534 l 68 534 m 477 533 l 477 59 l 536 0 l 596 59 l 596 533 l 536 594 l 477 533 l 477 533 m 127 594 l 187 654 l 477 654 l 536 594 l 477 534 l 187 534 l 127 594 l 127 594 "},"3":{"x_min":67.828125,"x_max":706,"ha":774,"o":"m 68 889 l 127 949 l 587 949 l 646 889 l 587 829 l 127 829 l 68 889 l 68 889 m 67 475 l 127 534 l 586 534 l 646 475 l 586 415 l 127 415 l 67 475 l 67 475 m 67 59 l 127 119 l 586 119 l 646 59 l 586 0 l 127 0 l 67 59 l 67 59 m 646 474 l 706 414 l 706 119 l 646 59 l 587 119 l 587 414 l 646 474 l 646 474 m 646 889 l 706 828 l 706 533 l 646 474 l 587 533 l 587 828 l 646 889 l 646 889 "},"9":{"x_min":68,"x_max":765,"ha":833,"o":"m 127 889 l 187 949 l 646 949 l 705 889 l 646 829 l 187 829 l 127 889 l 127 889 m 127 475 l 187 534 l 646 534 l 705 475 l 646 415 l 187 415 l 127 475 l 127 475 m 127 59 l 187 119 l 646 119 l 705 59 l 646 0 l 187 0 l 127 59 l 127 59 m 705 474 l 765 414 l 765 119 l 705 59 l 646 119 l 646 414 l 705 474 l 705 474 m 705 889 l 765 828 l 765 533 l 705 474 l 646 533 l 646 828 l 705 889 l 705 889 m 127 889 l 68 828 l 68 533 l 127 474 l 187 533 l 187 828 l 127 889 l 127 889 "},"l":{"x_min":68,"x_max":187,"ha":255,"o":"m 127 949 l 187 889 l 187 653 l 127 594 l 68 653 l 68 889 l 127 949 m 68 533 l 127 594 l 187 533 l 187 59 l 127 0 l 68 59 l 68 533 "},"¤":{"x_min":93.875,"x_max":792.8125,"ha":883,"o":"m 792 174 l 718 99 l 558 258 q 503 233 528 240 q 442 226 477 226 q 381 234 411 226 q 327 258 352 242 l 167 98 l 93 175 l 251 333 q 228 389 236 358 q 220 448 220 419 q 227 508 220 483 q 252 562 234 533 l 93 723 l 169 797 l 328 638 q 382 662 353 654 q 442 671 412 671 q 502 662 472 671 q 557 639 532 654 l 716 797 l 792 723 l 633 563 q 657 509 649 537 q 666 448 666 481 q 657 388 666 417 q 633 333 649 358 l 792 174 m 566 448 q 530 536 566 498 q 443 574 494 574 q 356 536 393 574 q 320 448 320 499 q 355 360 320 398 q 443 323 391 323 q 529 359 492 323 q 566 448 566 396 "},"4":{"x_min":68,"x_max":765,"ha":833,"o":"m 127 475 l 187 534 l 646 534 l 705 475 l 646 415 l 187 415 l 127 475 l 127 475 m 705 474 l 765 405 l 765 68 l 705 0 l 646 68 l 646 405 l 705 474 l 705 474 m 705 949 l 765 880 l 765 542 l 705 474 l 646 542 l 646 880 l 705 949 l 705 949 m 127 949 l 68 880 l 68 542 l 127 474 l 187 542 l 187 880 l 127 949 l 127 949 "},"p":{"x_min":68,"x_max":596,"ha":664,"o":"m 127 594 l 187 654 l 477 654 l 536 594 l 477 534 l 187 534 l 127 594 l 127 594 m 536 59 l 596 119 l 596 533 l 536 594 l 477 533 l 477 119 l 536 59 l 536 59 m 127 59 l 187 119 l 187 533 l 127 593 l 68 533 l 68 119 l 127 59 l 127 59 m 187 0 l 477 0 l 536 59 l 477 119 l 187 119 l 127 59 l 187 0 l 187 0 m 127 -295 l 187 -239 l 187 0 l 127 59 l 68 0 l 68 -231 l 127 -295 l 127 -295 "},"‡":{"x_min":127,"x_max":757,"ha":883,"o":"m 757 344 l 483 347 l 487 84 l 397 84 l 400 347 l 127 344 l 127 431 l 400 427 l 400 711 l 127 708 l 127 795 l 400 791 l 397 1055 l 487 1055 l 483 791 l 757 795 l 757 708 l 483 711 l 483 427 l 757 431 l 757 344 "},"à":{"x_min":68,"x_max":596,"ha":664,"o":"m 536 594 l 477 534 l 187 534 l 127 594 l 187 654 l 477 654 l 536 594 m 536 326 l 477 267 l 187 267 l 127 326 l 187 386 l 477 386 l 536 326 m 536 59 l 477 0 l 187 0 l 127 59 l 187 119 l 477 119 l 536 59 m 596 267 l 596 119 l 536 59 l 477 119 l 477 267 l 536 326 l 596 267 l 596 267 m 187 267 l 187 119 l 127 59 l 68 119 l 68 267 l 127 326 l 187 267 l 187 267 m 596 535 l 596 387 l 536 327 l 477 387 l 477 535 l 536 594 l 596 535 l 596 535 m 184 1037 l 283 1103 l 364 983 l 364 768 l 184 1037 l 184 1037 "},"Ü":{"x_min":68,"x_max":765,"ha":833,"o":"m 705 58 l 646 0 l 187 0 l 127 58 l 187 119 l 646 119 l 705 58 l 705 58 m 127 59 l 68 119 l 68 414 l 127 474 l 187 414 l 187 119 l 127 59 l 127 59 m 705 474 l 765 414 l 765 119 l 705 59 l 646 119 l 646 414 l 705 474 l 705 474 m 765 533 l 705 474 l 646 533 l 646 889 l 705 949 l 765 889 l 765 533 m 127 949 l 187 889 l 187 533 l 127 474 l 68 533 l 68 889 l 127 949 m 628 1137 l 494 1137 l 494 1269 l 628 1269 l 628 1137 m 348 1137 l 214 1137 l 214 1269 l 348 1269 l 348 1137 "},"ó":{"x_min":68,"x_max":596,"ha":664,"o":"m 127 594 l 187 654 l 477 654 l 536 594 l 477 534 l 187 534 l 127 594 l 127 594 m 536 59 l 596 119 l 596 533 l 536 594 l 477 533 l 477 119 l 536 59 l 536 59 m 127 59 l 187 119 l 187 533 l 127 593 l 68 533 l 68 119 l 127 59 l 127 59 m 187 0 l 477 0 l 536 59 l 477 119 l 187 119 l 127 59 l 187 0 l 187 0 m 474 1068 l 291 802 l 291 1015 l 373 1134 l 474 1068 "}}}
